<?xml version="1.0" encoding="UTF-8" standalone="no"?>
<!-- Created with Inkscape (http://www.inkscape.org/) -->

<svg
   width="370.30396mm"
   height="92.609955mm"
   viewBox="0 0 370.30396 92.60995"
   version="1.1"
   id="svg5"
   inkscape:version="1.4.3 (0d15f75042, 2025-12-25)"
   sodipodi:docname="linux-distro-build-pipeline.svg"
   xmlns:inkscape="http://www.inkscape.org/namespaces/inkscape"
   xmlns:sodipodi="http://sodipodi.sourceforge.net/DTD/sodipodi-0.dtd"
   xmlns="http://www.w3.org/2000/svg"
   xmlns:svg="http://www.w3.org/2000/svg">
  <sodipodi:namedview
     id="namedview7"
     pagecolor="#ffffff"
     bordercolor="#000000"
     borderopacity="0.25"
     inkscape:showpageshadow="2"
     inkscape:pageopacity="0.0"
     inkscape:pagecheckerboard="0"
     inkscape:deskcolor="#d1d1d1"
     inkscape:document-units="mm"
     showgrid="false"
     inkscape:zoom="0.83661254"
     inkscape:cx="1099.6727"
     inkscape:cy="265.35581"
     inkscape:window-width="1910"
     inkscape:window-height="1123"
     inkscape:window-x="26"
     inkscape:window-y="23"
     inkscape:window-maximized="0"
     inkscape:current-layer="layer1" />
  <defs
     id="defs2">
    <marker
       style="overflow:visible"
       id="Arrow1L"
       refX="0"
       refY="0"
       orient="auto-start-reverse"
       inkscape:stockid="Arrow1L"
       markerWidth="8.75"
       markerHeight="5"
       viewBox="0 0 8.75 5"
       inkscape:isstock="true"
       inkscape:collect="always"
       preserveAspectRatio="xMidYMid">
      <path
         style="fill:context-stroke;fill-rule:evenodd;stroke:none"
         d="M 0,0 5,-5 -12.5,0 5,5 Z"
         id="arrow1L"
         transform="scale(-0.5)" />
    </marker>
    <marker
       style="overflow:visible"
       id="Arrow1L-2"
       refX="0"
       refY="0"
       orient="auto-start-reverse"
       inkscape:stockid="Arrow1L"
       markerWidth="8.75"
       markerHeight="5"
       viewBox="0 0 8.75 5"
       inkscape:isstock="true"
       inkscape:collect="always"
       preserveAspectRatio="xMidYMid">
      <path
         style="fill:context-stroke;fill-rule:evenodd;stroke:none"
         d="M 0,0 5,-5 -12.5,0 5,5 Z"
         id="arrow1L-0"
         transform="scale(-0.5)" />
    </marker>
    <marker
       style="overflow:visible"
       id="Arrow1L-3"
       refX="0"
       refY="0"
       orient="auto-start-reverse"
       inkscape:stockid="Arrow1L"
       markerWidth="8.75"
       markerHeight="5"
       viewBox="0 0 8.75 5"
       inkscape:isstock="true"
       inkscape:collect="always"
       preserveAspectRatio="xMidYMid">
      <path
         style="fill:context-stroke;fill-rule:evenodd;stroke:none"
         d="M 0,0 5,-5 -12.5,0 5,5 Z"
         id="arrow1L-7"
         transform="scale(-0.5)" />
    </marker>
    <marker
       style="overflow:visible"
       id="Arrow1L-3-9"
       refX="0"
       refY="0"
       orient="auto-start-reverse"
       inkscape:stockid="Arrow1L"
       markerWidth="8.75"
       markerHeight="5"
       viewBox="0 0 8.75 5"
       inkscape:isstock="true"
       inkscape:collect="always"
       preserveAspectRatio="xMidYMid">
      <path
         style="fill:context-stroke;fill-rule:evenodd;stroke:none"
         d="M 0,0 5,-5 -12.5,0 5,5 Z"
         id="arrow1L-7-2"
         transform="scale(-0.5)" />
    </marker>
    <marker
       style="overflow:visible"
       id="Arrow1L-8"
       refX="0"
       refY="0"
       orient="auto-start-reverse"
       inkscape:stockid="Arrow1L"
       markerWidth="8.75"
       markerHeight="5"
       viewBox="0 0 8.75 5"
       inkscape:isstock="true"
       inkscape:collect="always"
       preserveAspectRatio="xMidYMid">
      <path
         style="fill:context-stroke;fill-rule:evenodd;stroke:none"
         d="M 0,0 5,-5 -12.5,0 5,5 Z"
         id="arrow1L-9"
         transform="scale(-0.5)" />
    </marker>
    <marker
       style="overflow:visible"
       id="Arrow1L-8-2"
       refX="0"
       refY="0"
       orient="auto-start-reverse"
       inkscape:stockid="Arrow1L"
       markerWidth="10"
       markerHeight="10"
       viewBox="0 0 8.75 5"
       inkscape:isstock="true"
       inkscape:collect="always"
       preserveAspectRatio="xMidYMid">
      <path
         style="fill:context-stroke;fill-rule:evenodd;stroke:none"
         d="M 0,0 5,-5 -12.5,0 5,5 Z"
         id="arrow1L-9-9"
         transform="scale(-0.5)" />
    </marker>
    <marker
       style="overflow:visible"
       id="Arrow1L-8-2-1"
       refX="0"
       refY="0"
       orient="auto-start-reverse"
       inkscape:stockid="Arrow1L"
       markerWidth="8.75"
       markerHeight="5"
       viewBox="0 0 8.75 5"
       inkscape:isstock="true"
       inkscape:collect="always"
       preserveAspectRatio="xMidYMid">
      <path
         style="fill:context-stroke;fill-rule:evenodd;stroke:none"
         d="M 0,0 5,-5 -12.5,0 5,5 Z"
         id="arrow1L-9-9-9"
         transform="scale(-0.5)" />
    </marker>
    <marker
       style="overflow:visible"
       id="Arrow1L-2-3"
       refX="0"
       refY="0"
       orient="auto-start-reverse"
       inkscape:stockid="Arrow1L"
       markerWidth="8.75"
       markerHeight="5"
       viewBox="0 0 8.75 5"
       inkscape:isstock="true"
       inkscape:collect="always"
       preserveAspectRatio="xMidYMid">
      <path
         style="fill:context-stroke;fill-rule:evenodd;stroke:none"
         d="M 0,0 5,-5 -12.5,0 5,5 Z"
         id="arrow1L-0-6"
         transform="scale(-0.5)" />
    </marker>
    <marker
       style="overflow:visible"
       id="Arrow1L-2-3-0"
       refX="0"
       refY="0"
       orient="auto-start-reverse"
       inkscape:stockid="Arrow1L"
       markerWidth="8.75"
       markerHeight="5"
       viewBox="0 0 8.75 5"
       inkscape:isstock="true"
       inkscape:collect="always"
       preserveAspectRatio="xMidYMid">
      <path
         style="fill:context-stroke;fill-rule:evenodd;stroke:none"
         d="M 0,0 5,-5 -12.5,0 5,5 Z"
         id="arrow1L-0-6-6"
         transform="scale(-0.5)" />
    </marker>
    <marker
       style="overflow:visible"
       id="Arrow1L-8-2-1-4"
       refX="0"
       refY="0"
       orient="auto-start-reverse"
       inkscape:stockid="Arrow1L"
       markerWidth="8.75"
       markerHeight="5"
       viewBox="0 0 8.75 5"
       inkscape:isstock="true"
       inkscape:collect="always"
       preserveAspectRatio="xMidYMid">
      <path
         style="fill:context-stroke;fill-rule:evenodd;stroke:none"
         d="M 0,0 5,-5 -12.5,0 5,5 Z"
         id="arrow1L-9-9-9-6"
         transform="scale(-0.5)" />
    </marker>
    <marker
       style="overflow:visible"
       id="Arrow1L-8-2-1-9"
       refX="0"
       refY="0"
       orient="auto-start-reverse"
       inkscape:stockid="Arrow1L"
       markerWidth="8.75"
       markerHeight="5"
       viewBox="0 0 8.75 5"
       inkscape:isstock="true"
       inkscape:collect="always"
       preserveAspectRatio="xMidYMid">
      <path
         style="fill:context-stroke;fill-rule:evenodd;stroke:none"
         d="M 0,0 5,-5 -12.5,0 5,5 Z"
         id="arrow1L-9-9-9-60"
         transform="scale(-0.5)" />
    </marker>
    <marker
       style="overflow:visible"
       id="Arrow1L-7"
       refX="0"
       refY="0"
       orient="auto-start-reverse"
       inkscape:stockid="Arrow1L"
       markerWidth="8.75"
       markerHeight="5"
       viewBox="0 0 8.75 5"
       inkscape:isstock="true"
       inkscape:collect="always"
       preserveAspectRatio="xMidYMid">
      <path
         style="fill:context-stroke;fill-rule:evenodd;stroke:none"
         d="M 0,0 5,-5 -12.5,0 5,5 Z"
         id="arrow1L-4"
         transform="scale(-0.5)" />
    </marker>
  </defs>
  <g
     inkscape:label="Layer 1"
     inkscape:groupmode="layer"
     id="layer1"
     transform="translate(63.274045,-42.003856)">
    <text
       xml:space="preserve"
       style="font-size:6.35px;font-family:Comfortaa;-inkscape-font-specification:'Comfortaa, Normal';text-align:center;text-anchor:middle;fill:#000000;fill-opacity:1;stroke-width:0.2;stroke-dasharray:2.64401, 2.64401"
       x="243.93527"
       y="86.75061"
       id="text5872-3-6-9"><tspan
         sodipodi:role="line"
         style="font-style:normal;font-variant:normal;font-weight:normal;font-stretch:normal;font-family:'Fira Code';-inkscape-font-specification:'Fira Code';fill:#000000;fill-opacity:1;stroke-width:0.2"
         x="243.93527"
         y="86.75061"
         id="tspan8426-6">Publish</tspan></text>
    <text
       xml:space="preserve"
       style="font-size:6.35px;font-family:Comfortaa;-inkscape-font-specification:'Comfortaa, Normal';text-align:center;text-anchor:middle;fill:#000000;fill-opacity:1;stroke-width:0.2;stroke-dasharray:2.64401, 2.64401"
       x="-29.88887"
       y="92.025757"
       id="text5872-3-6-9-5"><tspan
         sodipodi:role="line"
         style="font-style:normal;font-variant:normal;font-weight:normal;font-stretch:normal;font-family:'Fira Code';-inkscape-font-specification:'Fira Code';fill:#000000;fill-opacity:1;stroke-width:0.2"
         x="-29.88887"
         y="92.025757"
         id="tspan8426-6-4">Upstream</tspan></text>
    <text
       xml:space="preserve"
       style="font-size:6.35px;font-family:Comfortaa;-inkscape-font-specification:'Comfortaa, Normal';text-align:center;text-anchor:middle;fill:#000000;fill-opacity:1;stroke-width:0.2;stroke-dasharray:2.64401, 2.64401"
       x="55.442486"
       y="131.24429"
       id="text5872-3-6-9-3"><tspan
         sodipodi:role="line"
         style="font-style:normal;font-variant:normal;font-weight:normal;font-stretch:normal;font-family:'Fira Code';-inkscape-font-specification:'Fira Code';fill:#000000;fill-opacity:1;stroke-width:0.2"
         x="55.442486"
         y="131.24429"
         id="tspan8426-6-61">Monitoring</tspan></text>
    <text
       xml:space="preserve"
       style="font-size:6.35px;font-family:Comfortaa;-inkscape-font-specification:'Comfortaa, Normal';text-align:center;text-anchor:middle;fill:#000000;fill-opacity:1;stroke-width:0.2;stroke-dasharray:none"
       x="46.20187"
       y="87.847572"
       id="text5872-3"><tspan
         sodipodi:role="line"
         style="font-style:normal;font-variant:normal;font-weight:normal;font-stretch:normal;font-family:'Fira Code';-inkscape-font-specification:'Fira Code';fill:#000000;fill-opacity:1;stroke-width:0.2;stroke-dasharray:none"
         x="46.20187"
         y="87.847572"
         id="tspan6134-7">Source</tspan><tspan
         sodipodi:role="line"
         style="font-style:normal;font-variant:normal;font-weight:normal;font-stretch:normal;font-family:'Fira Code';-inkscape-font-specification:'Fira Code';fill:#000000;fill-opacity:1;stroke-width:0.2;stroke-dasharray:none"
         x="46.20187"
         y="96.039925"
         id="tspan6177">Control</tspan></text>
    <path
       d="m 30.140447,87.483868 a 1.8719241,1.8719241 0 0 0 -2.985664,-1.513364 1.8714233,1.8714233 0 0 0 0.578905,3.29665 1.4963374,1.4963374 0 0 1 -1.336088,0.836308 h -1.497339 a 2.2314857,2.2314857 0 0 0 -1.496839,0.58341 v -3.614646 a 1.8714233,1.8714233 0 1 0 -0.748167,0 v 4.565632 a 1.8909538,1.8909538 0 1 0 0.90942,0.04957 1.497339,1.497339 0 0 1 1.336088,-0.834805 h 1.497339 a 2.2455077,2.2455077 0 0 0 2.114802,-1.521878 1.8709225,1.8709225 0 0 0 1.627543,-1.846383 z M 21.906586,85.23836 a 1.1227545,1.1227545 0 1 1 2.245508,0 1.1227545,1.1227545 0 0 1 -2.245508,0 z m 2.245508,8.233362 a 1.1227545,1.1227545 0 1 1 -2.245508,0 1.1227545,1.1227545 0 0 1 2.245508,0 z m 4.11693,-4.865099 a 1.1230042,1.1230042 0 1 1 0,-2.246008 1.1230042,1.1230042 0 0 1 0,2.246008 z"
       id="path11817"
       style="stroke-width:0.500782;stroke-dasharray:none" />
    <rect
       style="fill:none;fill-opacity:1;stroke:#000000;stroke-width:0.396875;stroke-dasharray:none;stroke-dashoffset:0;stroke-opacity:1"
       id="rect13110"
       width="44.931431"
       height="23.157461"
       x="17.129923"
       y="78.135139"
       ry="5.3232012" />
    <rect
       style="fill:none;fill-opacity:1;stroke:#000000;stroke-width:0.396875;stroke-dasharray:none;stroke-dashoffset:0;stroke-opacity:1"
       id="rect13110-8"
       width="65.212738"
       height="17.961426"
       x="-63.075607"
       y="80.366776"
       ry="5.3232012" />
    <text
       xml:space="preserve"
       style="font-size:6.35px;font-family:Comfortaa;-inkscape-font-specification:'Comfortaa, Normal';text-align:center;text-anchor:middle;fill:#000000;fill-opacity:1;stroke-width:0.2;stroke-dasharray:2.64401, 2.64401"
       x="97.107086"
       y="80.935921"
       id="text5872"><tspan
         sodipodi:role="line"
         id="tspan5870"
         style="font-style:normal;font-variant:normal;font-weight:normal;font-stretch:normal;font-family:'Fira Code';-inkscape-font-specification:'Fira Code';fill:#000000;fill-opacity:1;stroke-width:0.2"
         x="97.107086"
         y="80.935921">Package</tspan><tspan
         sodipodi:role="line"
         style="font-style:normal;font-variant:normal;font-weight:normal;font-stretch:normal;font-family:'Fira Code';-inkscape-font-specification:'Fira Code';fill:#000000;fill-opacity:1;stroke-width:0.2"
         x="97.107086"
         y="89.128273"
         id="tspan6134">Build</tspan></text>
    <rect
       style="fill:none;fill-opacity:1;stroke:#000000;stroke-width:0.396875;stroke-dasharray:none;stroke-dashoffset:0;stroke-opacity:1"
       id="rect13110-6"
       width="37.753845"
       height="38.747181"
       x="77.397537"
       y="71.059021"
       ry="5.3232012" />
    <path
       fill-rule="evenodd"
       clip-rule="evenodd"
       d="m 95.755879,93.746202 5.630051,1.50069 0.63754,0.461 v 6.610888 l -0.36292,0.4708 -6.012578,1.65763 -6.022379,-1.65763 -0.353104,-0.4708 v -6.610888 l 0.598311,-0.461 5.620238,-1.50069 z m -0.08827,0.980843 -3.923375,0.980847 0.539461,0.196181 3.364295,0.882759 2.942532,-0.794482 0.931802,-0.284447 z m -5.414259,7.219015 4.904222,1.34376 V 97.669577 L 90.25335,96.355249 Z m 5.885064,-4.276483 v 5.620243 l 4.904226,-1.34376 v -5.620239 l -1.981311,0.542409 v 2.517825 l -0.980843,0.255013 v -2.504094 z"
       id="path13522"
       style="stroke-width:0.980843" />
    <g
       id="g25222"
       transform="translate(3.3011375,28.056902)"
       style="stroke-dasharray:none">
      <text
         xml:space="preserve"
         style="font-size:6.35px;font-family:Comfortaa;-inkscape-font-specification:'Comfortaa, Normal';text-align:center;text-anchor:middle;fill:#000000;fill-opacity:1;stroke-width:0.2;stroke-dasharray:none"
         x="155.62448"
         y="43.570927"
         id="text5872-3-6"><tspan
           sodipodi:role="line"
           style="font-style:normal;font-variant:normal;font-weight:normal;font-stretch:normal;font-family:'Fira Code';-inkscape-font-specification:'Fira Code';fill:#000000;fill-opacity:1;stroke-width:0.2;stroke-dasharray:none"
           x="155.62448"
           y="43.570927"
           id="tspan6177-9">Repository</tspan><tspan
           sodipodi:role="line"
           style="font-style:normal;font-variant:normal;font-weight:normal;font-stretch:normal;font-family:'Fira Code';-inkscape-font-specification:'Fira Code';fill:#000000;fill-opacity:1;stroke-width:0.2;stroke-dasharray:none"
           x="155.62448"
           y="51.763279"
           id="tspan8426">Assembly</tspan></text>
      <path
         fill-rule="evenodd"
         clip-rule="evenodd"
         d="m 135.24441,47.367514 v -6.607491 l -0.3887,-0.388678 h -7.58695 a 1.4769689,1.4769689 0 0 0 -0.52082,0.101069 1.3759131,1.3759131 0 0 0 -0.73072,0.777351 1.3214985,1.3214985 0 0 0 -0.10106,0.481959 v 7.384845 a 1.3214985,1.3214985 0 0 0 0.10106,0.520827 c 0.1375,0.331929 0.40034,0.597006 0.73072,0.738484 a 1.4769689,1.4769689 0 0 0 0.52082,0.101068 h 0.20214 v -0.777354 h -0.20214 a 0.55969349,0.55969349 0 0 1 -0.22534,-0.04665 0.57524051,0.57524051 0 0 1 -0.31094,-0.31094 0.72293742,0.72293742 0 0 1 -0.0388,-0.225435 v -0.388681 a 0.72293742,0.72293742 0 0 1 0.0388,-0.225434 0.57524051,0.57524051 0 0 1 0.31094,-0.31094 0.55969349,0.55969349 0 0 1 0.2224,-0.04665 h 7.20139 v 1.554702 h -3.1094 v 0.777354 h 3.49807 l 0.38871,-0.388677 z m -7.77355,0 v -6.218815 h 6.99618 v 6.218815 z m 0.77738,-5.441464 h 0.77734 v 0.777351 h -0.77734 z m 0,1.554706 h 0.77734 v 0.777351 h -0.77734 z m 0.77734,1.554702 h -0.77734 v 0.777354 h 0.77734 z m 0.38867,5.045016 -0.94836,1.173802 h -0.21771 V 48.92222 h 2.33206 v 2.332056 h -0.21771 z"
         id="path16040"
         style="stroke-width:0.777351;stroke-dasharray:none" />
      <rect
         style="fill:none;fill-opacity:1;stroke:#000000;stroke-width:0.396875;stroke-dasharray:none;stroke-dashoffset:0;stroke-opacity:1"
         id="rect13110-6-8-7"
         width="54.710739"
         height="21.356579"
         x="121.97472"
         y="35.148758"
         ry="5.3232012" />
    </g>
    <text
       xml:space="preserve"
       style="font-size:6.35px;font-family:Comfortaa;-inkscape-font-specification:'Comfortaa, Normal';text-align:center;text-anchor:middle;fill:#000000;fill-opacity:1;stroke-width:0.2;stroke-dasharray:2.64401, 2.64401"
       x="59.535206"
       y="51.153629"
       id="text5872-3-6-0"><tspan
         sodipodi:role="line"
         style="font-style:normal;font-variant:normal;font-weight:normal;font-stretch:normal;font-family:'Fira Code';-inkscape-font-specification:'Fira Code';fill:#000000;fill-opacity:1;stroke-width:0.2"
         x="59.535206"
         y="51.153629"
         id="tspan8426-1">User</tspan><tspan
         sodipodi:role="line"
         style="font-style:normal;font-variant:normal;font-weight:normal;font-stretch:normal;font-family:'Fira Code';-inkscape-font-specification:'Fira Code';fill:#000000;fill-opacity:1;stroke-width:0.2"
         x="59.535206"
         y="59.345982"
         id="tspan36802">Authentication</tspan></text>
    <rect
       style="fill:none;fill-opacity:1;stroke:#000000;stroke-width:0.396875;stroke-dasharray:none;stroke-dashoffset:0;stroke-opacity:1"
       id="rect13110-6-8-7-5"
       width="73.338921"
       height="21.597692"
       x="17.544949"
       y="42.202293"
       ry="5.3232012" />
    <path
       d="m 26.932363,50.249982 a 1.4939117,1.4939117 0 1 0 -2.987822,0 1.4939117,1.4939117 0 1 0 2.987822,0 z m -3.88417,0 a 2.390259,2.390259 0 1 1 4.780518,0 2.390259,2.390259 0 1 1 -4.780518,0 z m -0.87207,6.274428 h 6.524658 c -0.166198,-1.182057 -1.182057,-2.091476 -2.408933,-2.091476 h -1.706792 c -1.226876,0 -2.242735,0.909419 -2.408933,2.091476 z M 21.2555,56.866143 c 0,-1.839378 1.490176,-3.329555 3.329556,-3.329555 h 1.706792 c 1.83938,0 3.329556,1.490177 3.329556,3.329555 0,0.306251 -0.248363,0.554614 -0.554615,0.554614 h -7.256674 c -0.306252,0 -0.554615,-0.248363 -0.554615,-0.554614 z"
       id="path37221"
       style="stroke-width:0.0186739" />
    <g
       id="g25188"
       transform="translate(3.3011375,28.056902)"
       style="stroke-dasharray:none">
      <text
         xml:space="preserve"
         style="font-size:6.35px;font-family:Comfortaa;-inkscape-font-specification:'Comfortaa, Normal';text-align:center;text-anchor:middle;fill:#000000;fill-opacity:1;stroke-width:0.2;stroke-dasharray:none"
         x="156.64606"
         y="79.644882"
         id="text5872-1"><tspan
           sodipodi:role="line"
           id="tspan5870-2"
           style="font-style:normal;font-variant:normal;font-weight:normal;font-stretch:normal;font-family:'Fira Code';-inkscape-font-specification:'Fira Code';fill:#000000;fill-opacity:1;stroke-width:0.2;stroke-dasharray:none"
           x="156.64606"
           y="79.644882">Image</tspan><tspan
           sodipodi:role="line"
           style="font-style:normal;font-variant:normal;font-weight:normal;font-stretch:normal;font-family:'Fira Code';-inkscape-font-specification:'Fira Code';fill:#000000;fill-opacity:1;stroke-width:0.2;stroke-dasharray:none"
           x="156.64606"
           y="87.837234"
           id="tspan6134-70">Build</tspan></text>
      <rect
         style="fill:none;fill-opacity:1;stroke:#000000;stroke-width:0.396875;stroke-dasharray:none;stroke-dashoffset:0;stroke-opacity:1"
         id="rect13110-6-8"
         width="44.384525"
         height="21.356579"
         x="126.42168"
         y="70.85424"
         ry="5.3232012" />
      <path
         d="m 129.96633,81.597622 a 6.054445,6.054445 0 1 1 12.10889,0 6.054445,6.054445 0 1 1 -12.10889,0 z m 6.05445,0.756806 a 0.7568055,0.7568055 0 1 1 0,-1.513611 0.7568055,0.7568055 0 1 1 0,1.513611 z m -2.27042,-0.756806 a 2.2704161,2.2704161 0 1 0 4.54083,0 2.2704161,2.2704161 0 1 0 -4.54083,0 z m -1.51361,-0.378402 c 0,-0.827756 0.41388,-1.681527 1.06899,-2.336637 0.65511,-0.655109 1.50888,-1.068987 2.33663,-1.068987 0.20813,0 0.37841,-0.170281 0.37841,-0.378403 0,-0.208121 -0.17028,-0.378403 -0.37841,-0.378403 -1.07371,0 -2.10959,0.527399 -2.87349,1.288934 -0.7639,0.761536 -1.28893,1.799778 -1.28893,2.873496 0,0.208121 0.17028,0.378402 0.3784,0.378402 0.20812,0 0.3784,-0.170281 0.3784,-0.378402 z"
         id="path15915"
         style="stroke-width:0.0236501;stroke-dasharray:none" />
    </g>
    <g
       id="g25729"
       transform="translate(36.83577,23.915718)"
       style="stroke-dasharray:none">
      <text
         xml:space="preserve"
         style="font-size:6.35px;font-family:Comfortaa;-inkscape-font-specification:'Comfortaa, Normal';text-align:center;text-anchor:middle;fill:#000000;fill-opacity:1;stroke-width:0.2;stroke-dasharray:none"
         x="253.24113"
         y="67.96611"
         id="text5872-3-6-9-0"><tspan
           sodipodi:role="line"
           style="font-style:normal;font-variant:normal;font-weight:normal;font-stretch:normal;font-family:'Fira Code';-inkscape-font-specification:'Fira Code';fill:#000000;fill-opacity:1;stroke-width:0.2;stroke-dasharray:none"
           x="253.24113"
           y="67.96611"
           id="tspan8426-6-6">Mirrors</tspan></text>
      <rect
         style="fill:none;fill-opacity:1;stroke:#000000;stroke-width:0.396875;stroke-dasharray:none;stroke-dashoffset:0;stroke-opacity:1"
         id="rect13110-6-8-7-9"
         width="45.520538"
         height="17.957359"
         x="224.47516"
         y="56.551422"
         ry="5.3232012" />
      <path
         d="m 232.56368,62.352414 h 2.49805 v 0.624513 h -2.49805 z m 0,3.747081 h 2.49805 v 0.624513 h -2.49805 z m 0,1.249029 h 2.49805 v 0.624512 h -2.49805 z m 5.70805,3.122565 h -8.91805 l 0.78065,-3.122565 h 1.18031 v -5.620622 a 0.59328777,0.59328777 0 0 1 0.0486,-0.23919 c 0.0326,-0.07494 0.0767,-0.14115 0.13171,-0.199852 a 0.5758014,0.5758014 0 0 1 0.19992,-0.13676 0.63075858,0.63075858 0 0 1 0.2442,-0.04872 h 3.74709 a 0.59328777,0.59328777 0 0 1 0.23917,0.04872 c 0.0748,0.03248 0.14116,0.07681 0.19993,0.13178 a 0.5758014,0.5758014 0 0 1 0.13666,0.199852 c 0.0326,0.07805 0.0486,0.159867 0.0486,0.244185 v 5.620621 h 1.18033 z m -6.33255,-1.87354 h 3.74707 v -6.869647 h -3.74707 z m 5.53316,1.249027 -0.46836,-1.87354 h -0.69322 v 1.249028 h -4.99612 v -1.249028 h -0.69319 l -0.46838,1.87354 z"
         id="path23869"
         style="stroke-width:0.624513;stroke-dasharray:none" />
    </g>
    <text
       xml:space="preserve"
       style="font-size:6.35px;font-family:Comfortaa;-inkscape-font-specification:'Comfortaa, Normal';text-align:center;text-anchor:middle;fill:#000000;fill-opacity:1;stroke-width:0.2;stroke-dasharray:2.64401, 2.64401"
       x="217.1889"
       y="91.881828"
       id="text5872-3-6-9-0-8"><tspan
         sodipodi:role="line"
         style="font-style:normal;font-variant:normal;font-weight:normal;font-stretch:normal;font-family:'Fira Code';-inkscape-font-specification:'Fira Code';fill:#000000;fill-opacity:1;stroke-width:0.2"
         x="217.1889"
         y="91.881828"
         id="tspan8426-6-6-4">QA</tspan></text>
    <rect
       style="fill:none;fill-opacity:1;stroke:#000000;stroke-width:0.396875;stroke-dasharray:none;stroke-dashoffset:0;stroke-opacity:1"
       id="rect13110-6-8-7-9-5"
       width="34.988335"
       height="17.957359"
       x="193.96782"
       y="80.46714"
       ry="5.3232012" />
    <path
       style="fill:none;fill-opacity:1;stroke:#000000;stroke-width:0.396875;stroke-dasharray:none;stroke-dashoffset:0;stroke-opacity:1;marker-end:url(#Arrow1L)"
       d="M 62.107683,89.412082 H 74.808046"
       id="path25390"
       sodipodi:nodetypes="cc" />
    <path
       style="fill:none;fill-opacity:1;stroke:#000000;stroke-width:0.396875;stroke-dasharray:none;stroke-dashoffset:0;stroke-opacity:1;marker-end:url(#Arrow1L-7)"
       d="M 2.1142352,89.412082 H 14.623248"
       id="path25390-3"
       sodipodi:nodetypes="cc" />
    <path
       style="fill:none;fill-opacity:1;stroke:#000000;stroke-width:0.396875;stroke-dasharray:none;stroke-dashoffset:0;stroke-opacity:1;marker-end:url(#Arrow1L-8)"
       d="M 144.2242,84.292696 V 96.38414"
       id="path25390-7"
       sodipodi:nodetypes="cc" />
    <path
       style="fill:none;fill-opacity:1;stroke:#000000;stroke-width:0.396875;stroke-dasharray:1.19062, 1.19062;stroke-dashoffset:0;stroke-opacity:1;marker-end:url(#Arrow1L-8-2)"
       d="m 87.538012,123.01625 3.759426,-9.96683"
       id="path25390-7-3"
       sodipodi:nodetypes="cc" />
    <path
       style="fill:none;fill-opacity:1;stroke:#000000;stroke-width:0.396875;stroke-dasharray:1.19062, 1.19062;stroke-dashoffset:0;stroke-opacity:1;marker-end:url(#Arrow1L-8-2-1)"
       d="M 93.402481,128.41599 127.31256,118.38576"
       id="path25390-7-3-4"
       sodipodi:nodetypes="cc" />
    <path
       style="fill:none;fill-opacity:1;stroke:#000000;stroke-width:0.396875;stroke-dasharray:1.19062, 1.19062;stroke-dashoffset:0;stroke-opacity:1;marker-end:url(#Arrow1L-8-2-1-9)"
       d="M 91.354074,125.47472 C 122.43618,112.58618 126.22718,97.496057 136.00526,86.290066"
       id="path25390-7-3-4-0"
       sodipodi:nodetypes="cc" />
    <path
       style="fill:none;fill-opacity:1;stroke:#000000;stroke-width:0.396875;stroke-dasharray:1.19062, 1.19062;stroke-dashoffset:0;stroke-opacity:1;marker-end:url(#Arrow1L-8-2-1-4)"
       d="m 93.121276,130.34801 c 28.677244,0 92.302634,5.58754 116.130114,-29.80161"
       id="path25390-7-3-4-8"
       sodipodi:nodetypes="cc" />
    <path
       style="fill:none;fill-opacity:1;stroke:#000000;stroke-width:0.396875;stroke-dasharray:none;stroke-dashoffset:0;stroke-opacity:1;marker-end:url(#Arrow1L-3)"
       d="m 115.06041,89.412082 c 5.95714,0 7.34923,-2.408656 9.69409,-4.72293"
       id="path25390-5"
       sodipodi:nodetypes="cc" />
    <path
       style="fill:none;fill-opacity:1;stroke:#000000;stroke-width:0.396875;stroke-dasharray:none;stroke-dashoffset:0;stroke-opacity:1;marker-end:url(#Arrow1L-3-9)"
       d="m 115.06041,89.412082 c 6.19779,0 12.80359,3.294115 16.29827,7.84268"
       id="path25390-5-2"
       sodipodi:nodetypes="cc" />
    <path
       style="fill:none;fill-opacity:1;stroke:#000000;stroke-width:0.396875;stroke-dasharray:none;stroke-dashoffset:0;stroke-opacity:1;marker-end:url(#Arrow1L-2)"
       d="m 228.88259,89.412082 h 29.50423"
       id="path25390-2"
       sodipodi:nodetypes="cc" />
    <path
       style="fill:none;fill-opacity:1;stroke:#000000;stroke-width:0.396875;stroke-dasharray:none;stroke-dashoffset:0;stroke-opacity:1;marker-end:url(#Arrow1L-2-3)"
       d="m 178.49738,83.17653 c 2.88691,3.536852 8.65696,5.224081 13.1853,6.09431"
       id="path25390-2-1"
       sodipodi:nodetypes="cc" />
    <path
       style="fill:none;fill-opacity:1;stroke:#000000;stroke-width:0.396875;stroke-dasharray:none;stroke-dashoffset:0;stroke-opacity:1;marker-end:url(#Arrow1L-2-3-0)"
       d="m 174.17321,102.56092 c 4.98816,-3.387412 11.90384,-5.871934 17.48559,-7.209836"
       id="path25390-2-1-3"
       sodipodi:nodetypes="cc" />
    <path
       d="m 85.086627,125.12491 c -1.54669,0 -2.81821,0.70218 -3.79319,1.606 -0.913307,0.84925 -1.544318,1.85745 -1.866941,2.56911 0.322623,0.71167 0.953634,1.71987 1.864571,2.56912 0.97735,0.90382 2.24887,1.606 3.79556,1.606 1.54669,0 2.8182,-0.70218 3.79318,-1.606 0.91331,-0.84925 1.54432,-1.85745 1.86694,-2.56912 -0.32262,-0.71166 -0.95363,-1.71986 -1.86457,-2.56911 -0.97735,-0.90382 -2.24886,-1.606 -3.79555,-1.606 z m -4.56891,0.77335 c 1.11732,-1.03904 2.65215,-1.91202 4.56891,-1.91202 1.91675,0 3.45158,0.87298 4.5689,1.91202 1.1102,1.03191 1.85271,2.2631 2.20617,3.10998 0.0783,0.18741 0.0783,0.39616 0,0.58357 -0.35346,0.84688 -1.09597,2.08044 -2.20617,3.10998 -1.11732,1.03904 -2.65215,1.91202 -4.5689,1.91202 -1.91676,0 -3.45159,-0.87298 -4.56891,-1.91202 -1.110199,-1.02954 -1.852704,-2.2631 -2.203794,-3.10998 -0.07828,-0.18741 -0.07828,-0.39616 0,-0.58357 0.35109,-0.84688 1.093595,-2.08044 2.203794,-3.10998 z m 4.56891,5.29954 c 1.04852,0 1.89778,-0.84925 1.89778,-1.89778 0,-1.04852 -0.84926,-1.89777 -1.89778,-1.89777 -0.0166,0 -0.0308,0 -0.0474,0 0.0308,0.12098 0.0474,0.24908 0.0474,0.37955 0,0.8374 -0.68083,1.51822 -1.51823,1.51822 -0.13047,0 -0.25857,-0.0166 -0.37955,-0.0474 0,0.0166 0,0.0308 0,0.0474 0,1.04853 0.84925,1.89778 1.89778,1.89778 z m 0,-4.93422 a 3.0364465,3.0364465 0 1 1 0,6.07289 3.0364465,3.0364465 0 1 1 0,-6.07289 z"
       id="path27762"
       style="stroke-width:0.0237222" />
    <path
       d="m 208.05622,93.117189 -2.56756,-4.980759 v -2.638112 h 0.65954 V 84.83879 h -0.66348 v -0.004 l -0.30075,0.0032 h -2.99294 v 0.656233 h 0.65952 v 2.606454 l -2.56821,5.018352 a 0.65952826,0.65952826 0 0 0 0.58963,0.953016 h 6.59527 a 0.65952826,0.65952826 0 0 0 0.58898,-0.954995 z m -4.61672,-4.715627 0.0705,-0.14181 v -2.74166 l 1.31906,-0.01595 v 2.79442 l 0.0725,0.14181 1.20497,2.336049 h -3.88331 z m -2.56753,5.018351 1.01567,-1.985841 h 4.56131 l 1.02028,1.978585 z"
       id="path35076"
       style="stroke-width:0.659527" />
    <path
       d="m -55.443682,93.006589 c 0,0.04909 -0.05645,0.08835 -0.127614,0.08835 -0.08099,0.0074 -0.13743,-0.03193 -0.13743,-0.08835 0,-0.04908 0.05645,-0.08835 0.127613,-0.08835 0.07362,-0.0074 0.137431,0.03193 0.137431,0.08835 z m -0.763231,-0.110432 c -0.01718,0.04908 0.03191,0.105526 0.105527,0.12025 0.06381,0.02453 0.137431,0 0.152156,-0.04908 0.01472,-0.04908 -0.03191,-0.105527 -0.105528,-0.127614 -0.0638,-0.01718 -0.134976,0.0074 -0.152155,0.05644 z m 1.084721,-0.04171 c -0.07117,0.01718 -0.120252,0.06381 -0.112889,0.120255 0.0074,0.04908 0.07117,0.08099 0.144793,0.06381 0.07117,-0.01718 0.120252,-0.06381 0.112889,-0.112891 -0.0074,-0.04662 -0.07362,-0.07853 -0.144793,-0.07117 z m 1.614811,-9.404187 c -3.403865,0 -6.007687,2.584187 -6.007687,5.988054 0,2.721617 1.712977,5.050581 4.159735,5.870257 0.314127,0.05644 0.424563,-0.137431 0.424563,-0.29695 0,-0.152154 -0.0074,-0.991466 -0.0074,-1.506828 0,0 -1.717885,0.368114 -2.07864,-0.731332 0,0 -0.27977,-0.71415 -0.682245,-0.898204 0,0 -0.561994,-0.3853 0.03927,-0.377936 0,0 0.611077,0.04908 0.947291,0.633164 0.537453,0.947291 1.438115,0.674881 1.789054,0.512909 0.05645,-0.392659 0.215963,-0.665064 0.392659,-0.827036 -1.371854,-0.152159 -2.755978,-0.350942 -2.755978,-2.711805 0,-0.674886 0.186514,-1.013552 0.579173,-1.445476 -0.06381,-0.159519 -0.272408,-0.817224 0.0638,-1.666347 0.512912,-0.159519 1.693343,0.662611 1.693343,0.662611 0.490824,-0.137432 1.01846,-0.2086 1.541188,-0.2086 0.522727,0 1.050364,0.07117 1.541188,0.2086 0,0 1.180432,-0.824583 1.693342,-0.662611 0.336215,0.851576 0.127615,1.506828 0.06381,1.666347 0.39266,0.434377 0.633163,0.773049 0.633163,1.445476 0,2.368227 -1.445477,2.557193 -2.81733,2.711805 0.225778,0.193872 0.4172,0.561991 0.4172,1.13871 0,0.82704 -0.0074,1.850407 -0.0074,2.051647 0,0.159514 0.112889,0.35339 0.424563,0.296945 2.45412,-0.814765 4.118013,-3.143729 4.118013,-5.865346 0,-3.403867 -2.760885,-5.988054 -6.16475,-5.988054 z m -3.622282,8.464261 c -0.03191,0.02453 -0.02454,0.08099 0.01718,0.127614 0.03927,0.03928 0.09571,0.05644 0.127615,0.02453 0.03191,-0.02453 0.02454,-0.08099 -0.01718,-0.127614 -0.03927,-0.03928 -0.09571,-0.05645 -0.127615,-0.02453 z m -0.265044,-0.198783 c -0.01718,0.03188 0.0074,0.07117 0.05644,0.09571 0.03927,0.02453 0.08835,0.01718 0.105526,-0.01718 0.01718,-0.03188 -0.0074,-0.07117 -0.05645,-0.09571 -0.04909,-0.01475 -0.08835,-0.0074 -0.105527,0.01718 z m 0.795135,0.873664 c -0.03927,0.03193 -0.02454,0.105527 0.03191,0.152159 0.05644,0.05644 0.127614,0.06381 0.159518,0.02453 0.03191,-0.03193 0.01718,-0.105531 -0.03191,-0.152154 -0.05399,-0.05645 -0.127614,-0.06381 -0.159517,-0.02453 z m -0.27977,-0.360754 c -0.03927,0.02453 -0.03927,0.08835 0,0.144795 0.03927,0.05644 0.105527,0.08098 0.137431,0.05644 0.03927,-0.03193 0.03927,-0.09571 0,-0.152159 -0.03436,-0.05644 -0.09817,-0.08099 -0.137431,-0.04908 z"
       id="path1-7"
       style="stroke-width:0.0245412" />
    <g
       id="g1"
       transform="translate(41.605093,-11.767064)">
      <path
         class="cls-2"
         d="m -42.190322,100.46575 -0.01563,-0.0417 -1.577804,-4.115687 a 0.40933601,0.40933601 0 0 0 -0.162246,-0.195737 0.41677849,0.41677849 0 0 0 -0.625912,0.238159 l -1.065018,3.260547 h -4.312913 l -1.065018,-3.260547 a 0.41752274,0.41752274 0 0 0 -0.625912,-0.238159 0.40933601,0.40933601 0 0 0 -0.162246,0.195737 l -1.57706,4.116427 -0.01637,0.0409 a 2.9293574,2.9293574 0 0 0 0.971987,3.38558 l 0.006,0.004 0.0134,0.0104 2.400198,1.79885 1.190795,0.89979 0.723409,0.54703 a 0.48897048,0.48897048 0 0 0 0.589444,0 l 0.723408,-0.54703 1.190796,-0.89979 2.417315,-1.80927 0.0067,-0.005 a 2.9293574,2.9293574 0 0 0 0.972731,-3.38483 z"
         id="path7"
         style="fill:#e24329;stroke-width:0.0744247" />
      <path
         class="cls-3"
         d="m -42.190322,100.46575 -0.01563,-0.0417 a 5.3213682,5.3213682 0 0 0 -2.121105,0.95413 l -3.464471,2.61975 2.205949,1.66711 2.417316,-1.80927 0.0067,-0.005 a 2.9293574,2.9293574 0 0 0 0.971242,-3.38483 z"
         id="path8-3"
         style="fill:#fc6d26;stroke-width:0.0744247" />
      <path
         class="cls-4"
         d="m -50.004918,105.66506 1.190795,0.89979 0.723409,0.54703 a 0.48897048,0.48897048 0 0 0 0.589444,0 l 0.723408,-0.54703 1.190796,-0.89979 -2.205949,-1.66711 z"
         id="path9"
         style="fill:#fca326;stroke-width:0.0744247" />
      <path
         class="cls-3"
         d="m -51.259719,101.3782 a 5.3169027,5.3169027 0 0 0 -2.120361,-0.95339 l -0.01637,0.0409 a 2.9293574,2.9293574 0 0 0 0.971987,3.38558 l 0.006,0.004 0.0134,0.0104 2.400198,1.79885 2.207437,-1.66711 z"
         id="path10"
         style="fill:#fc6d26;stroke-width:0.0744247" />
    </g>
  </g>
</svg>
