<?xml version="1.0" encoding="UTF-8" standalone="no"?>
<!-- Created with Inkscape (http://www.inkscape.org/) -->

<svg
   width="420mm"
   height="297mm"
   viewBox="0 0 420.00001 297"
   version="1.1"
   id="svg1"
   inkscape:version="1.4.3 (0d15f75042, 2025-12-25)"
   sodipodi:docname="oci-image.svg"
   xmlns:inkscape="http://www.inkscape.org/namespaces/inkscape"
   xmlns:sodipodi="http://sodipodi.sourceforge.net/DTD/sodipodi-0.dtd"
   xmlns="http://www.w3.org/2000/svg"
   xmlns:svg="http://www.w3.org/2000/svg">
  <sodipodi:namedview
     id="namedview1"
     pagecolor="#ffffff"
     bordercolor="#000000"
     borderopacity="0.25"
     inkscape:showpageshadow="2"
     inkscape:pageopacity="0.0"
     inkscape:pagecheckerboard="0"
     inkscape:deskcolor="#d1d1d1"
     inkscape:document-units="mm"
     inkscape:zoom="0.77415125"
     inkscape:cx="925.52973"
     inkscape:cy="477.29691"
     inkscape:window-width="2549"
     inkscape:window-height="1362"
     inkscape:window-x="26"
     inkscape:window-y="23"
     inkscape:window-maximized="0"
     inkscape:current-layer="layer1" />
  <defs
     id="defs1">
    <marker
       style="overflow:visible"
       id="DartArrow"
       refX="0"
       refY="0"
       orient="auto-start-reverse"
       inkscape:stockid="Dart arrow"
       markerWidth="1"
       markerHeight="1"
       viewBox="0 0 1 1"
       inkscape:isstock="true"
       inkscape:collect="always"
       preserveAspectRatio="xMidYMid">
      <path
         style="fill:context-stroke;fill-rule:evenodd;stroke:none"
         d="M 0,0 5,-5 -12.5,0 5,5 Z"
         transform="scale(-0.5)"
         id="path6" />
    </marker>
    <marker
       style="overflow:visible"
       id="DartArrow-6"
       refX="0"
       refY="0"
       orient="auto-start-reverse"
       inkscape:stockid="Dart arrow"
       markerWidth="1"
       markerHeight="1"
       viewBox="0 0 1 1"
       inkscape:isstock="true"
       inkscape:collect="always"
       preserveAspectRatio="xMidYMid">
      <path
         style="fill:context-stroke;fill-rule:evenodd;stroke:none"
         d="M 0,0 5,-5 -12.5,0 5,5 Z"
         transform="scale(-0.5)"
         id="path6-3" />
    </marker>
    <marker
       style="overflow:visible"
       id="DartArrow-6-2"
       refX="0"
       refY="0"
       orient="auto-start-reverse"
       inkscape:stockid="Dart arrow"
       markerWidth="1"
       markerHeight="1"
       viewBox="0 0 1 1"
       inkscape:isstock="true"
       inkscape:collect="always"
       preserveAspectRatio="xMidYMid">
      <path
         style="fill:context-stroke;fill-rule:evenodd;stroke:none"
         d="M 0,0 5,-5 -12.5,0 5,5 Z"
         transform="scale(-0.5)"
         id="path6-3-5" />
    </marker>
    <marker
       style="overflow:visible"
       id="DartArrow-6-9"
       refX="0"
       refY="0"
       orient="auto-start-reverse"
       inkscape:stockid="Dart arrow"
       markerWidth="1"
       markerHeight="1"
       viewBox="0 0 1 1"
       inkscape:isstock="true"
       inkscape:collect="always"
       preserveAspectRatio="xMidYMid">
      <path
         style="fill:context-stroke;fill-rule:evenodd;stroke:none"
         d="M 0,0 5,-5 -12.5,0 5,5 Z"
         transform="scale(-0.5)"
         id="path6-3-0" />
    </marker>
    <marker
       style="overflow:visible"
       id="DartArrow-6-2-3"
       refX="0"
       refY="0"
       orient="auto-start-reverse"
       inkscape:stockid="Dart arrow"
       markerWidth="1"
       markerHeight="1"
       viewBox="0 0 1 1"
       inkscape:isstock="true"
       inkscape:collect="always"
       preserveAspectRatio="xMidYMid">
      <path
         style="fill:context-stroke;fill-rule:evenodd;stroke:none"
         d="M 0,0 5,-5 -12.5,0 5,5 Z"
         transform="scale(-0.5)"
         id="path6-3-5-1" />
    </marker>
  </defs>
  <g
     inkscape:label="Layer 1"
     inkscape:groupmode="layer"
     id="layer1"
     transform="translate(-41.905684,-43.614542)">
    <rect
       style="fill:none;stroke:#000000;stroke-width:0.264583;stroke-dasharray:none;stroke-opacity:1"
       id="rect1"
       width="239.24049"
       height="213.26579"
       x="98.213219"
       y="61.389923"
       ry="7.1772151" />
    <rect
       style="fill:none;stroke:#000000;stroke-width:0.264583;stroke-dasharray:1.05833, 1.05833;stroke-dashoffset:0;stroke-opacity:1"
       id="rect1-9"
       width="78.2658"
       height="63.569603"
       x="232.78247"
       y="111.14386"
       ry="7.1772151" />
    <text
       xml:space="preserve"
       style="font-style:normal;font-variant:normal;font-weight:normal;font-stretch:normal;font-size:11.2889px;font-family:'Fira Code';-inkscape-font-specification:'Fira Code';text-align:start;writing-mode:lr-tb;direction:ltr;text-anchor:start;fill:none;stroke:#000000;stroke-width:0.264583;stroke-dasharray:none;stroke-opacity:1"
       x="105.39043"
       y="77.111443"
       id="text1"><tspan
         sodipodi:role="line"
         id="tspan1"
         style="font-size:11.2889px;fill:#000000;fill-opacity:1;stroke:none;stroke-width:0.264583"
         x="105.39043"
         y="77.111443">OCI Image</tspan></text>
    <text
       xml:space="preserve"
       style="font-style:normal;font-variant:normal;font-weight:normal;font-stretch:normal;font-size:11.2889px;font-family:'Fira Code';-inkscape-font-specification:'Fira Code';text-align:start;writing-mode:lr-tb;direction:ltr;text-anchor:start;fill:none;stroke:#000000;stroke-width:0.264583;stroke-dasharray:none;stroke-opacity:1"
       x="242.00385"
       y="124.48864"
       id="text1-9"><tspan
         sodipodi:role="line"
         style="font-size:11.2889px;fill:#000000;fill-opacity:1;stroke:none;stroke-width:0.264583"
         x="242.00385"
         y="124.48864"
         id="tspan2">manifest</tspan></text>
    <rect
       style="fill:none;stroke:#000000;stroke-width:0.264583;stroke-dasharray:1.05833, 1.05833;stroke-dashoffset:0;stroke-opacity:1"
       id="rect1-9-99"
       width="85.784798"
       height="19.822769"
       x="229.9559"
       y="70.206726"
       ry="7.1772151" />
    <text
       xml:space="preserve"
       style="font-style:normal;font-variant:normal;font-weight:normal;font-stretch:normal;font-size:11.2889px;font-family:'Fira Code';-inkscape-font-specification:'Fira Code';text-align:start;writing-mode:lr-tb;direction:ltr;text-anchor:start;fill:none;stroke:#000000;stroke-width:0.264583;stroke-dasharray:none;stroke-opacity:1"
       x="239.17728"
       y="83.551506"
       id="text1-9-8"><tspan
         sodipodi:role="line"
         style="font-size:11.2889px;fill:#000000;fill-opacity:1;stroke:none;stroke-width:0.264583"
         x="239.17728"
         y="83.551506"
         id="tspan2-0">index.json</tspan></text>
    <rect
       style="fill:none;stroke:#000000;stroke-width:0.264583;stroke-dasharray:1.05833, 1.05833;stroke-dashoffset:0;stroke-opacity:1"
       id="rect1-9-7"
       width="105.94934"
       height="64.326027"
       x="109.96726"
       y="117.38914"
       ry="7.1772151" />
    <text
       xml:space="preserve"
       style="font-style:normal;font-variant:normal;font-weight:normal;font-stretch:normal;font-size:11.2889px;font-family:'Fira Code';-inkscape-font-specification:'Fira Code';text-align:start;writing-mode:lr-tb;direction:ltr;text-anchor:start;fill:none;stroke:#000000;stroke-width:0.264583;stroke-dasharray:none;stroke-opacity:1"
       x="119.18864"
       y="130.73393"
       id="text1-9-0"><tspan
         sodipodi:role="line"
         style="font-size:11.2889px;fill:#000000;fill-opacity:1;stroke:none;stroke-width:0.264583"
         x="119.18864"
         y="130.73393"
         id="tspan2-51">config</tspan></text>
    <rect
       style="fill:none;stroke:#000000;stroke-width:0.264583;stroke-dasharray:1.05833, 1.05833;stroke-dashoffset:0;stroke-opacity:1"
       id="rect1-9-7-4"
       width="58.784775"
       height="20.237427"
       x="249.01279"
       y="137.01431"
       ry="5.8101268" />
    <text
       xml:space="preserve"
       style="font-style:normal;font-variant:normal;font-weight:normal;font-stretch:normal;font-size:11.2889px;font-family:'Fira Code';-inkscape-font-specification:'Fira Code';text-align:start;writing-mode:lr-tb;direction:ltr;text-anchor:start;fill:none;stroke:#000000;stroke-width:0.264583;stroke-dasharray:none;stroke-opacity:1"
       x="253.44934"
       y="150.35912"
       id="text1-9-0-0"><tspan
         sodipodi:role="line"
         style="font-size:11.2889px;fill:#000000;fill-opacity:1;stroke:none;stroke-width:0.264583"
         x="253.44934"
         y="150.35912"
         id="tspan2-51-3">subject</tspan></text>
    <rect
       style="fill:none;stroke:#000000;stroke-width:0.264583;stroke-dasharray:1.05833, 1.05833;stroke-dashoffset:0;stroke-opacity:1"
       id="rect1-9-7-4-0"
       width="79.291122"
       height="20.237427"
       x="350.5191"
       y="137.01431"
       ry="5.8101268" />
    <text
       xml:space="preserve"
       style="font-style:normal;font-variant:normal;font-weight:normal;font-stretch:normal;font-size:11.2889px;font-family:'Fira Code';-inkscape-font-specification:'Fira Code';text-align:start;writing-mode:lr-tb;direction:ltr;text-anchor:start;fill:none;stroke:#000000;stroke-width:0.264583;stroke-dasharray:none;stroke-opacity:1"
       x="354.95566"
       y="150.35912"
       id="text1-9-0-0-8"><tspan
         sodipodi:role="line"
         style="font-size:11.2889px;fill:#000000;fill-opacity:1;stroke:none;stroke-width:0.264583"
         x="354.95566"
         y="150.35912"
         id="tspan2-51-3-3">descriptor</tspan></text>
    <g
       id="g1"
       transform="translate(-79.831389)">
      <rect
         style="fill:none;stroke:#000000;stroke-width:0.264583;stroke-dasharray:1.05833, 1.05833;stroke-dashoffset:0;stroke-opacity:1"
         id="rect1-9-9"
         width="118.59491"
         height="56.392406"
         x="188.20882"
         y="205.90207"
         ry="7.1772151" />
      <text
         xml:space="preserve"
         style="font-style:normal;font-variant:normal;font-weight:normal;font-stretch:normal;font-size:8.46667px;line-height:1.3;font-family:'Fira Code';-inkscape-font-specification:'Fira Code';text-align:start;writing-mode:lr-tb;direction:ltr;text-anchor:start;fill:none;stroke:#000000;stroke-width:0.264583;stroke-dasharray:none;stroke-opacity:1"
         x="223.9828"
         y="243.70543"
         id="text1-9-0-5"><tspan
           sodipodi:role="line"
           style="font-size:8.46667px;line-height:1.3;fill:#000000;fill-opacity:1;stroke:none;stroke-width:0.264583"
           x="223.9828"
           y="243.70543"
           id="tspan2-6-0">/etc/os-release</tspan><tspan
           sodipodi:role="line"
           style="font-size:8.46667px;line-height:1.3;fill:#000000;fill-opacity:1;stroke:none;stroke-width:0.264583"
           x="223.9828"
           y="254.7121"
           id="tspan5-1">/usr/bin/cat</tspan></text>
      <text
         xml:space="preserve"
         style="font-style:normal;font-variant:normal;font-weight:normal;font-stretch:normal;font-size:11.2889px;font-family:'Fira Code';-inkscape-font-specification:'Fira Code';text-align:start;writing-mode:lr-tb;direction:ltr;text-anchor:start;fill:none;stroke:#000000;stroke-width:0.264583;stroke-dasharray:none;stroke-opacity:1"
         x="228.63995"
         y="225.27473"
         id="text1-9-4"><tspan
           sodipodi:role="line"
           style="font-size:11.2889px;fill:#000000;fill-opacity:1;stroke:none;stroke-width:0.264583"
           x="228.63995"
           y="225.27473"
           id="tspan2-5">Layer 1</tspan></text>
      <path
         d="m 196.54735,228.56403 c -0.32327,0 -0.58776,-0.26449 -0.58776,-0.58776 v -14.10633 c 0,-0.32327 0.26449,-0.58776 0.58776,-0.58776 h 1.76329 c 0,0.32327 0.26449,0.58776 0.58776,0.58776 h 1.17553 c 0.32327,0 0.58777,-0.26449 0.58777,-0.58776 h 1.76329 v 2.93882 c 0,0.65021 0.52531,1.17552 1.17552,1.17552 h 2.93882 v 10.57975 c 0,0.32327 -0.26449,0.58776 -0.58776,0.58776 z m 0,-17.04514 c -1.29675,0 -2.35106,1.0543 -2.35106,2.35105 v 14.10633 c 0,1.29676 1.05431,2.35106 2.35106,2.35106 h 9.40422 c 1.29675,0 2.35105,-1.0543 2.35105,-2.35106 v -10.78179 c 0,-0.6245 -0.24612,-1.22328 -0.68695,-1.66411 l -3.32821,-3.32453 c -0.44082,-0.44083 -1.03593,-0.68695 -1.66043,-0.68695 z m 1.76329,4.11434 c 0,0.32327 0.26449,0.58777 0.58776,0.58777 h 1.17553 c 0.32327,0 0.58777,-0.2645 0.58777,-0.58777 0,-0.32327 -0.2645,-0.58776 -0.58777,-0.58776 h -1.17553 c -0.32327,0 -0.58776,0.26449 -0.58776,0.58776 z m 0,2.35106 c 0,0.32327 0.26449,0.58776 0.58776,0.58776 h 1.17553 c 0.32327,0 0.58777,-0.26449 0.58777,-0.58776 0,-0.32327 -0.2645,-0.58777 -0.58777,-0.58777 h -1.17553 c -0.32327,0 -0.58776,0.2645 -0.58776,0.58777 z m -0.23143,2.63759 -0.86695,3.23637 c -0.0514,0.19837 -0.0771,0.40042 -0.0771,0.60246 0,1.29308 1.05797,2.34003 2.35105,2.34003 1.29308,0 2.35106,-1.04695 2.35106,-2.34003 0,-0.20204 -0.0257,-0.40776 -0.0771,-0.60246 l -0.86328,-3.24005 c -0.13592,-0.51429 -0.60246,-0.87429 -1.13512,-0.87429 h -0.54372 c -0.53266,0 -0.9992,0.35633 -1.13512,0.87429 z m 0.81919,3.24004 h 1.17553 c 0.32327,0 0.58777,0.2645 0.58777,0.58777 0,0.32327 -0.2645,0.58776 -0.58777,0.58776 h -1.17553 c -0.32327,0 -0.58776,-0.26449 -0.58776,-0.58776 0,-0.32327 0.26449,-0.58777 0.58776,-0.58777 z"
         id="path1"
         style="stroke-width:0.0367352" />
      <path
         d="m 201.50816,237.76388 c 0,-0.47673 -0.38355,-0.86028 -0.86029,-0.86028 -0.47674,0 -0.86028,0.38355 -0.86028,0.86028 v 4.01466 9.17635 c 0,1.10761 0.89971,2.00733 2.00733,2.00733 h 7.16902 v -1.72057 h -7.16902 c -0.15772,0 -0.28676,-0.12906 -0.28676,-0.28676 v -8.31607 h 7.45578 v -1.72057 h -7.45578 z m 10.32339,5.44846 v -4.58817 h 1.58078 l 0.60936,0.60937 c 0.3441,0.34411 0.8101,0.53767 1.29759,0.53767 h 3.39454 v 3.44113 z m -1.72056,-5.16169 v 5.73521 c 0,0.63447 0.51258,1.14705 1.14704,1.14705 h 8.0293 c 0.63446,0 1.14704,-0.51258 1.14704,-1.14705 v -4.58818 c 0,-0.63445 -0.51258,-1.14703 -1.14704,-1.14703 h -3.96805 c -0.0286,0 -0.061,-0.0103 -0.0824,-0.0324 l -0.77425,-0.77784 c -0.21507,-0.21507 -0.50543,-0.33694 -0.8101,-0.33694 h -2.39446 c -0.63446,0 -1.14704,0.51259 -1.14704,1.14705 z m 1.72056,15.48508 v -4.58817 h 1.58078 l 0.60936,0.60936 c 0.3441,0.34412 0.8101,0.53769 1.29759,0.53769 h 3.39454 v 3.44112 z m -1.72056,-5.16169 v 5.73521 c 0,0.63446 0.51258,1.14705 1.14704,1.14705 h 8.0293 c 0.63446,0 1.14704,-0.51259 1.14704,-1.14705 v -4.58817 c 0,-0.63445 -0.51258,-1.14704 -1.14704,-1.14704 h -3.96805 c -0.0286,0 -0.061,-0.0103 -0.0824,-0.0324 l -0.77784,-0.77784 c -0.21507,-0.21507 -0.50542,-0.33695 -0.8101,-0.33695 h -2.39087 c -0.63446,0 -1.14704,0.51258 -1.14704,1.14705 z"
         id="path1-0"
         style="stroke-width:0.035845" />
    </g>
    <text
       xml:space="preserve"
       style="font-style:normal;font-variant:normal;font-weight:normal;font-stretch:normal;font-size:8.46667px;line-height:1.3;font-family:'Fira Code';-inkscape-font-specification:'Fira Code';text-align:start;writing-mode:lr-tb;direction:ltr;text-anchor:start;fill:none;stroke:#000000;stroke-width:0.264583;stroke-dasharray:none;stroke-opacity:1"
       x="118.76839"
       y="144.03035"
       id="text1-9-0-5-2-6"><tspan
         sodipodi:role="line"
         style="font-size:8.46667px;line-height:1.3;fill:#000000;fill-opacity:1;stroke:none;stroke-width:0.264583"
         x="118.76839"
         y="144.03035"
         id="tspan2-6-0-4-1">{</tspan><tspan
         sodipodi:role="line"
         style="font-size:8.46667px;line-height:1.3;fill:#000000;fill-opacity:1;stroke:none;stroke-width:0.264583"
         x="118.76839"
         y="155.03702"
         id="tspan3">  &quot;os&quot;: &quot;linux&quot;,</tspan><tspan
         sodipodi:role="line"
         style="font-size:8.46667px;line-height:1.3;fill:#000000;fill-opacity:1;stroke:none;stroke-width:0.264583"
         x="118.76839"
         y="166.04369"
         id="tspan5">  &quot;arch&quot;: &quot;x86_64&quot;</tspan><tspan
         sodipodi:role="line"
         style="font-size:8.46667px;line-height:1.3;fill:#000000;fill-opacity:1;stroke:none;stroke-width:0.264583"
         x="118.76839"
         y="177.05037"
         id="tspan5-1-9-5">}</tspan></text>
    <g
       id="g5"
       transform="translate(-46.481012)">
      <rect
         style="fill:none;stroke:#000000;stroke-width:0.264583;stroke-dasharray:1.05833, 1.05833;stroke-dashoffset:0;stroke-opacity:1"
         id="rect1-9-9-4"
         width="89.544258"
         height="56.392395"
         x="281.65591"
         y="205.90207"
         ry="7.1772151" />
      <text
         xml:space="preserve"
         style="font-style:normal;font-variant:normal;font-weight:normal;font-stretch:normal;font-size:8.46667px;line-height:1.3;font-family:'Fira Code';-inkscape-font-specification:'Fira Code';text-align:start;writing-mode:lr-tb;direction:ltr;text-anchor:start;fill:none;stroke:#000000;stroke-width:0.264583;stroke-dasharray:none;stroke-opacity:1"
         x="317.4299"
         y="243.70543"
         id="text1-9-0-5-2"><tspan
           sodipodi:role="line"
           style="font-size:8.46667px;line-height:1.3;fill:#000000;fill-opacity:1;stroke:none;stroke-width:0.264583"
           x="317.4299"
           y="243.70543"
           id="tspan2-6-0-4">/src/</tspan><tspan
           sodipodi:role="line"
           style="font-size:8.46667px;line-height:1.3;fill:#000000;fill-opacity:1;stroke:none;stroke-width:0.264583"
           x="317.4299"
           y="254.7121"
           id="tspan5-1-9">/src/app</tspan></text>
      <text
         xml:space="preserve"
         style="font-style:normal;font-variant:normal;font-weight:normal;font-stretch:normal;font-size:11.2889px;font-family:'Fira Code';-inkscape-font-specification:'Fira Code';text-align:start;writing-mode:lr-tb;direction:ltr;text-anchor:start;fill:none;stroke:#000000;stroke-width:0.264583;stroke-dasharray:none;stroke-opacity:1"
         x="310.12503"
         y="225.27473"
         id="text1-9-4-9"><tspan
           sodipodi:role="line"
           style="font-size:11.2889px;fill:#000000;fill-opacity:1;stroke:none;stroke-width:0.264583"
           x="310.12503"
           y="225.27473"
           id="tspan2-5-9">Layer 2</tspan></text>
      <path
         d="m 289.99444,228.56403 c -0.32327,0 -0.58776,-0.26449 -0.58776,-0.58776 v -14.10633 c 0,-0.32327 0.26449,-0.58776 0.58776,-0.58776 h 1.76329 c 0,0.32327 0.26449,0.58776 0.58776,0.58776 h 1.17553 c 0.32327,0 0.58777,-0.26449 0.58777,-0.58776 h 1.76329 v 2.93882 c 0,0.65021 0.52531,1.17552 1.17552,1.17552 h 2.93882 v 10.57975 c 0,0.32327 -0.26449,0.58776 -0.58776,0.58776 z m 0,-17.04514 c -1.29675,0 -2.35106,1.0543 -2.35106,2.35105 v 14.10633 c 0,1.29676 1.05431,2.35106 2.35106,2.35106 h 9.40422 c 1.29675,0 2.35105,-1.0543 2.35105,-2.35106 v -10.78179 c 0,-0.6245 -0.24612,-1.22328 -0.68695,-1.66411 l -3.32821,-3.32453 c -0.44082,-0.44083 -1.03593,-0.68695 -1.66043,-0.68695 z m 1.76329,4.11434 c 0,0.32327 0.26449,0.58777 0.58776,0.58777 h 1.17553 c 0.32327,0 0.58777,-0.2645 0.58777,-0.58777 0,-0.32327 -0.2645,-0.58776 -0.58777,-0.58776 h -1.17553 c -0.32327,0 -0.58776,0.26449 -0.58776,0.58776 z m 0,2.35106 c 0,0.32327 0.26449,0.58776 0.58776,0.58776 h 1.17553 c 0.32327,0 0.58777,-0.26449 0.58777,-0.58776 0,-0.32327 -0.2645,-0.58777 -0.58777,-0.58777 h -1.17553 c -0.32327,0 -0.58776,0.2645 -0.58776,0.58777 z m -0.23143,2.63759 -0.86695,3.23637 c -0.0514,0.19837 -0.0771,0.40042 -0.0771,0.60246 0,1.29308 1.05797,2.34003 2.35105,2.34003 1.29308,0 2.35106,-1.04695 2.35106,-2.34003 0,-0.20204 -0.0257,-0.40776 -0.0771,-0.60246 l -0.86328,-3.24005 c -0.13592,-0.51429 -0.60246,-0.87429 -1.13512,-0.87429 h -0.54372 c -0.53266,0 -0.9992,0.35633 -1.13512,0.87429 z m 0.81919,3.24004 h 1.17553 c 0.32327,0 0.58777,0.2645 0.58777,0.58777 0,0.32327 -0.2645,0.58776 -0.58777,0.58776 h -1.17553 c -0.32327,0 -0.58776,-0.26449 -0.58776,-0.58776 0,-0.32327 0.26449,-0.58777 0.58776,-0.58777 z"
         id="path1-4"
         style="stroke-width:0.0367352" />
      <path
         d="m 294.95525,237.76388 c 0,-0.47673 -0.38355,-0.86028 -0.86029,-0.86028 -0.47674,0 -0.86028,0.38355 -0.86028,0.86028 v 4.01466 9.17635 c 0,1.10761 0.89971,2.00733 2.00733,2.00733 h 7.16902 v -1.72057 h -7.16902 c -0.15772,0 -0.28676,-0.12906 -0.28676,-0.28676 v -8.31607 h 7.45578 v -1.72057 h -7.45578 z m 10.32339,5.44846 v -4.58817 h 1.58078 l 0.60936,0.60937 c 0.3441,0.34411 0.8101,0.53767 1.29759,0.53767 h 3.39454 v 3.44113 z m -1.72056,-5.16169 v 5.73521 c 0,0.63447 0.51258,1.14705 1.14704,1.14705 h 8.0293 c 0.63446,0 1.14704,-0.51258 1.14704,-1.14705 v -4.58818 c 0,-0.63445 -0.51258,-1.14703 -1.14704,-1.14703 h -3.96805 c -0.0286,0 -0.061,-0.0103 -0.0824,-0.0324 l -0.77425,-0.77784 c -0.21507,-0.21507 -0.50543,-0.33694 -0.8101,-0.33694 h -2.39446 c -0.63446,0 -1.14704,0.51259 -1.14704,1.14705 z m 1.72056,15.48508 v -4.58817 h 1.58078 l 0.60936,0.60936 c 0.3441,0.34412 0.8101,0.53769 1.29759,0.53769 h 3.39454 v 3.44112 z m -1.72056,-5.16169 v 5.73521 c 0,0.63446 0.51258,1.14705 1.14704,1.14705 h 8.0293 c 0.63446,0 1.14704,-0.51259 1.14704,-1.14705 v -4.58817 c 0,-0.63445 -0.51258,-1.14704 -1.14704,-1.14704 h -3.96805 c -0.0286,0 -0.061,-0.0103 -0.0824,-0.0324 l -0.77784,-0.77784 c -0.21507,-0.21507 -0.50542,-0.33695 -0.8101,-0.33695 h -2.39087 c -0.63446,0 -1.14704,0.51258 -1.14704,1.14705 z"
         id="path1-0-9"
         style="stroke-width:0.035845" />
    </g>
    <path
       style="fill:none;stroke:#000000;stroke-width:0.79375;stroke-linecap:round;stroke-dasharray:none;stroke-opacity:1;marker-end:url(#DartArrow)"
       d="m 241.30212,168.0196 v 21.18987 H 119.63125 v 11.96202"
       id="path5"
       sodipodi:nodetypes="cccc" />
    <path
       style="fill:none;stroke:#000000;stroke-width:0.79375;stroke-linecap:round;stroke-dasharray:none;stroke-opacity:1;marker-end:url(#DartArrow-6)"
       d="m 247.45402,168.0196 v 33.1519"
       id="path5-2"
       sodipodi:nodetypes="cc" />
    <path
       style="fill:none;stroke:#000000;stroke-width:0.79375;stroke-linecap:round;stroke-dasharray:none;stroke-opacity:1;marker-end:url(#DartArrow-6-9)"
       d="m 247.45402,86.67783 v 23.58228"
       id="path5-2-0"
       sodipodi:nodetypes="cc" />
    <path
       style="fill:none;stroke:#000000;stroke-width:0.79375;stroke-linecap:round;stroke-dasharray:none;stroke-opacity:1;marker-end:url(#DartArrow-6-2)"
       d="m 236.25825,132.79637 h -33.1519"
       id="path5-2-6"
       sodipodi:nodetypes="cc" />
    <path
       style="fill:none;stroke:#000000;stroke-width:0.79375;stroke-linecap:round;stroke-dasharray:none;stroke-opacity:1;marker-end:url(#DartArrow-6-2-3)"
       d="m 305.85875,147.83434 42.03798,0"
       id="path5-2-6-5"
       sodipodi:nodetypes="cc" />
  </g>
</svg>
