<?xml version="1.0" encoding="UTF-8" standalone="no"?>
<!-- Created with Inkscape (http://www.inkscape.org/) -->

<svg
   width="127.40382mm"
   height="152.69493mm"
   viewBox="0 0 127.40382 152.69493"
   version="1.1"
   id="svg1"
   inkscape:version="1.4 (e7c3feb100, 2024-10-09)"
   sodipodi:docname="rpm-package.svg"
   xmlns:inkscape="http://www.inkscape.org/namespaces/inkscape"
   xmlns:sodipodi="http://sodipodi.sourceforge.net/DTD/sodipodi-0.dtd"
   xmlns="http://www.w3.org/2000/svg"
   xmlns:svg="http://www.w3.org/2000/svg">
  <sodipodi:namedview
     id="namedview1"
     pagecolor="#ffffff"
     bordercolor="#000000"
     borderopacity="0.25"
     inkscape:showpageshadow="2"
     inkscape:pageopacity="0.0"
     inkscape:pagecheckerboard="0"
     inkscape:deskcolor="#d1d1d1"
     inkscape:document-units="mm"
     inkscape:zoom="1.0948152"
     inkscape:cx="286.8064"
     inkscape:cy="321.51546"
     inkscape:window-width="1916"
     inkscape:window-height="1021"
     inkscape:window-x="0"
     inkscape:window-y="0"
     inkscape:window-maximized="0"
     inkscape:current-layer="layer1" />
  <defs
     id="defs1" />
  <g
     inkscape:label="Layer 1"
     inkscape:groupmode="layer"
     id="layer1"
     transform="translate(-41.905684,-43.614542)">
    <rect
       style="fill:none;stroke:#000000;stroke-width:0.264583;stroke-dasharray:none;stroke-opacity:1"
       id="rect1"
       width="127.13924"
       height="152.43034"
       x="42.037975"
       y="43.746834"
       ry="7.1772151" />
    <rect
       style="fill:none;stroke:#000000;stroke-width:0.26458299;stroke-dasharray:1.05833004,1.05833004;stroke-dashoffset:0;stroke-opacity:1"
       id="rect1-9"
       width="118.59491"
       height="66.303787"
       x="46.590546"
       y="63.424839"
       ry="7.1772151" />
    <rect
       style="fill:none;stroke:#000000;stroke-width:0.264583;stroke-dasharray:1.05833, 1.05833;stroke-dashoffset:0;stroke-opacity:1"
       id="rect1-9-9"
       width="118.59491"
       height="56.392406"
       x="46.590546"
       y="135.2843"
       ry="7.1772151" />
    <text
       xml:space="preserve"
       style="font-style:normal;font-variant:normal;font-weight:normal;font-stretch:normal;font-size:11.2889px;font-family:'Fira Code';-inkscape-font-specification:'Fira Code';text-align:start;writing-mode:lr-tb;direction:ltr;text-anchor:start;fill:none;stroke:#000000;stroke-width:0.264583;stroke-dasharray:none;stroke-opacity:1"
       x="68.354431"
       y="57.075951"
       id="text1"><tspan
         sodipodi:role="line"
         id="tspan1"
         style="font-size:11.2889px;fill:#000000;fill-opacity:1;stroke:none;stroke-width:0.264583"
         x="68.354431"
         y="57.075951">RPM Package</tspan></text>
    <text
       xml:space="preserve"
       style="font-style:normal;font-variant:normal;font-weight:normal;font-stretch:normal;font-size:11.2889px;font-family:'Fira Code';-inkscape-font-specification:'Fira Code';text-align:start;writing-mode:lr-tb;direction:ltr;text-anchor:start;fill:none;stroke:#000000;stroke-width:0.264583;stroke-dasharray:none;stroke-opacity:1"
       x="55.811928"
       y="76.769608"
       id="text1-9"><tspan
         sodipodi:role="line"
         style="font-size:11.2889px;fill:#000000;fill-opacity:1;stroke:none;stroke-width:0.264583"
         x="55.811928"
         y="76.769608"
         id="tspan2">Header</tspan></text>
    <text
       xml:space="preserve"
       style="font-style:normal;font-variant:normal;font-weight:normal;font-stretch:normal;font-size:8.46667px;line-height:1.3;font-family:'Fira Code';-inkscape-font-specification:'Fira Code';text-align:start;writing-mode:lr-tb;direction:ltr;text-anchor:start;fill:none;stroke:#000000;stroke-width:0.264583;stroke-dasharray:none;stroke-opacity:1"
       x="78.606308"
       y="92.114998"
       id="text1-9-0"><tspan
         sodipodi:role="line"
         style="font-size:8.46667px;line-height:1.3;fill:#000000;fill-opacity:1;stroke:none;stroke-width:0.264583"
         x="78.606308"
         y="92.114998"
         id="tspan2-6">Dependencies</tspan><tspan
         sodipodi:role="line"
         style="font-size:8.46667px;line-height:1.3;fill:#000000;fill-opacity:1;stroke:none;stroke-width:0.264583"
         x="78.606308"
         y="103.12167"
         id="tspan3">Metadata</tspan><tspan
         sodipodi:role="line"
         style="font-size:8.46667px;line-height:1.3;fill:#000000;fill-opacity:1;stroke:none;stroke-width:0.264583"
         x="78.606308"
         y="114.12834"
         id="tspan4">Filelists</tspan><tspan
         sodipodi:role="line"
         style="font-size:8.46667px;line-height:1.3;fill:#000000;fill-opacity:1;stroke:none;stroke-width:0.264583"
         x="78.606308"
         y="125.13501"
         id="tspan5">…</tspan></text>
    <text
       xml:space="preserve"
       style="font-style:normal;font-variant:normal;font-weight:normal;font-stretch:normal;font-size:8.46667px;line-height:1.3;font-family:'Fira Code';-inkscape-font-specification:'Fira Code';text-align:start;writing-mode:lr-tb;direction:ltr;text-anchor:start;fill:none;stroke:#000000;stroke-width:0.264583;stroke-dasharray:none;stroke-opacity:1"
       x="86.807594"
       y="173.08768"
       id="text1-9-0-5"><tspan
         sodipodi:role="line"
         style="font-size:8.46667px;line-height:1.3;fill:#000000;fill-opacity:1;stroke:none;stroke-width:0.264583"
         x="86.807594"
         y="173.08768"
         id="tspan2-6-0">/etc/foo.conf</tspan><tspan
         sodipodi:role="line"
         style="font-size:8.46667px;line-height:1.3;fill:#000000;fill-opacity:1;stroke:none;stroke-width:0.264583"
         x="86.807594"
         y="184.09435"
         id="tspan5-1">/usr/bin/foo</tspan></text>
    <text
       xml:space="preserve"
       style="font-style:normal;font-variant:normal;font-weight:normal;font-stretch:normal;font-size:11.2889px;font-family:'Fira Code';-inkscape-font-specification:'Fira Code';text-align:start;writing-mode:lr-tb;direction:ltr;text-anchor:start;fill:none;stroke:#000000;stroke-width:0.264583;stroke-dasharray:none;stroke-opacity:1"
       x="87.02169"
       y="154.65697"
       id="text1-9-4"><tspan
         sodipodi:role="line"
         style="font-size:11.2889px;fill:#000000;fill-opacity:1;stroke:none;stroke-width:0.264583"
         x="87.02169"
         y="154.65697"
         id="tspan2-5">Data</tspan></text>
    <path
       d="m 58.005031,157.94626 c -0.32327,0 -0.587763,-0.26449 -0.587763,-0.58776 v -14.10633 c 0,-0.32327 0.264493,-0.58776 0.587763,-0.58776 h 1.763291 c 0,0.32327 0.264494,0.58776 0.587764,0.58776 h 1.175526 c 0.32327,0 0.58777,-0.26449 0.58777,-0.58776 h 1.76329 v 2.93882 c 0,0.65021 0.52531,1.17552 1.17552,1.17552 h 2.93882 v 10.57975 c 0,0.32327 -0.26449,0.58776 -0.58776,0.58776 z m 0,-17.04514 c -1.296753,0 -2.351055,1.0543 -2.351055,2.35105 v 14.10633 c 0,1.29676 1.054302,2.35106 2.351055,2.35106 h 9.404221 c 1.29675,0 2.35105,-1.0543 2.35105,-2.35106 v -10.78179 c 0,-0.6245 -0.24612,-1.22328 -0.68695,-1.66411 l -3.32821,-3.32453 c -0.44082,-0.44083 -1.03593,-0.68695 -1.66043,-0.68695 z m 1.763291,4.11434 c 0,0.32327 0.264494,0.58777 0.587764,0.58777 h 1.175526 c 0.32327,0 0.58777,-0.2645 0.58777,-0.58777 0,-0.32327 -0.2645,-0.58776 -0.58777,-0.58776 h -1.175526 c -0.32327,0 -0.587764,0.26449 -0.587764,0.58776 z m 0,2.35106 c 0,0.32327 0.264494,0.58776 0.587764,0.58776 h 1.175526 c 0.32327,0 0.58777,-0.26449 0.58777,-0.58776 0,-0.32327 -0.2645,-0.58777 -0.58777,-0.58777 h -1.175526 c -0.32327,0 -0.587764,0.2645 -0.587764,0.58777 z m -0.231432,2.63759 -0.866951,3.23637 c -0.05143,0.19837 -0.07714,0.40042 -0.07714,0.60246 0,1.29308 1.057975,2.34003 2.351053,2.34003 1.29308,0 2.35106,-1.04695 2.35106,-2.34003 0,-0.20204 -0.0257,-0.40776 -0.0771,-0.60246 l -0.86328,-3.24005 c -0.13592,-0.51429 -0.60246,-0.87429 -1.13512,-0.87429 h -0.54368 c -0.532662,0 -0.9992,0.35633 -1.13512,0.87429 z m 0.819196,3.24004 h 1.175526 c 0.32327,0 0.58777,0.2645 0.58777,0.58777 0,0.32327 -0.2645,0.58776 -0.58777,0.58776 h -1.175526 c -0.32327,0 -0.587764,-0.26449 -0.587764,-0.58776 0,-0.32327 0.264494,-0.58777 0.587764,-0.58777 z"
       id="path1"
       style="stroke-width:0.0367352" />
    <path
       d="m 64.332928,167.14611 c 0,-0.47673 -0.383543,-0.86028 -0.860284,-0.86028 -0.476739,0 -0.860282,0.38355 -0.860282,0.86028 v 4.01466 9.17635 c 0,1.10761 0.899712,2.00733 2.007327,2.00733 h 7.169023 v -1.72057 h -7.169023 c -0.157719,0 -0.286761,-0.12906 -0.286761,-0.28676 v -8.31607 h 7.455784 v -1.72057 h -7.455784 z m 10.323398,5.44846 v -4.58817 h 1.580773 l 0.609365,0.60937 c 0.344101,0.34411 0.8101,0.53767 1.297583,0.53767 h 3.394546 v 3.44113 z m -1.720567,-5.16169 v 5.73521 c 0,0.63447 0.512586,1.14705 1.14704,1.14705 h 8.029306 c 0.634453,0 1.14704,-0.51258 1.14704,-1.14705 v -4.58818 c 0,-0.63445 -0.512587,-1.14703 -1.14704,-1.14703 h -3.968058 c -0.02865,0 -0.06099,-0.0103 -0.08239,-0.0324 l -0.774247,-0.77784 c -0.215073,-0.21507 -0.505425,-0.33694 -0.8101,-0.33694 h -2.394461 c -0.634453,0 -1.14704,0.51259 -1.14704,1.14705 z m 1.720567,15.48508 v -4.58817 h 1.580773 l 0.609365,0.60936 c 0.344101,0.34412 0.8101,0.53769 1.297583,0.53769 h 3.394546 v 3.44112 z m -1.720567,-5.16169 v 5.73521 c 0,0.63446 0.512586,1.14705 1.14704,1.14705 h 8.029306 c 0.634453,0 1.14704,-0.51259 1.14704,-1.14705 v -4.58817 c 0,-0.63445 -0.512587,-1.14704 -1.14704,-1.14704 h -3.968058 c -0.02865,0 -0.06099,-0.0103 -0.08239,-0.0324 l -0.777835,-0.77784 c -0.215073,-0.21507 -0.505425,-0.33695 -0.8101,-0.33695 h -2.390873 c -0.634453,0 -1.14704,0.51258 -1.14704,1.14705 z"
       id="path1-0"
       style="stroke-width:0.035845" />
  </g>
</svg>
