<?xml version="1.0" encoding="UTF-8" standalone="no"?>
<svg
   width="2447.25"
   height="316.172"
   viewBox="0 0 2447.25 316.172"
   fill="none"
   version="1.1"
   id="svg14"
   sodipodi:docname="ublue.svg"
   inkscape:version="1.4.3 (0d15f75042, 2025-12-25)"
   xmlns:inkscape="http://www.inkscape.org/namespaces/inkscape"
   xmlns:sodipodi="http://sodipodi.sourceforge.net/DTD/sodipodi-0.dtd"
   xmlns="http://www.w3.org/2000/svg"
   xmlns:svg="http://www.w3.org/2000/svg">
  <sodipodi:namedview
     id="namedview14"
     pagecolor="#ffffff"
     bordercolor="#000000"
     borderopacity="0.25"
     inkscape:showpageshadow="2"
     inkscape:pageopacity="0.0"
     inkscape:pagecheckerboard="0"
     inkscape:deskcolor="#d1d1d1"
     inkscape:zoom="0.46852123"
     inkscape:cx="1041.575"
     inkscape:cy="74.703125"
     inkscape:window-width="2560"
     inkscape:window-height="1373"
     inkscape:window-x="0"
     inkscape:window-y="0"
     inkscape:window-maximized="1"
     inkscape:current-layer="svg14" />
  <path
     d="m 450.088,260.652 c -13.92,0 -26.332,-3.016 -37.236,-9.048 C 402.18,245.34 393.712,236.756 387.448,225.852 381.416,214.948 378.4,202.42 378.4,188.268 V 75.864 h 47.676 v 105.444 c 0,11.6 3.364,20.88 10.092,27.84 6.96,6.96 16.24,10.44 27.84,10.44 7.888,0 14.964,-1.508 21.228,-4.524 6.496,-3.248 11.832,-7.772 16.008,-13.572 V 75.864 h 47.676 v 181.308 h -47.676 v -14.616 c -13.92,12.064 -30.972,18.096 -51.156,18.096 z m 122.069,-3.48 V 75.864 h 47.676 v 14.964 c 13.688,-12.296 30.624,-18.444 50.808,-18.444 14.152,0 26.564,3.132 37.236,9.396 10.904,6.032 19.372,14.5 25.404,25.404 6.032,10.672 9.048,23.2 9.048,37.584 V 257.172 H 694.653 V 151.728 c 0,-11.832 -3.364,-21.112 -10.092,-27.84 -6.728,-6.96 -15.892,-10.44 -27.492,-10.44 -8.12,0 -15.312,1.624 -21.576,4.872 -6.264,3.016 -11.484,7.424 -15.66,13.224 v 125.628 z m 192.365,0 V 75.864 h 47.676 V 257.172 Z M 788.186,54.288 c -7.424,0 -13.804,-2.668 -19.14,-8.004 -5.336,-5.336 -8.004,-11.716 -8.004,-19.14 0,-7.656 2.668,-14.036 8.004,-19.14 C 774.382,2.668 780.762,0 788.186,0 c 7.656,0 14.036,2.668 19.14,8.004 5.336,5.104 8.004,11.484 8.004,19.14 0,7.424 -2.668,13.804 -8.004,19.14 -5.104,5.336 -11.484,8.004 -19.14,8.004 z M 894.38,257.172 816.771,75.864 H 868.62 L 918.39,196.62 967.8,75.864 h 50.81 l -77.95,181.308 z m 212.77,3.48 c -18.09,0 -34.57,-4.176 -49.41,-12.528 -14.62,-8.352 -26.22,-19.604 -34.8,-33.756 -8.59,-14.152 -12.88,-30.044 -12.88,-47.676 0,-17.632 4.06,-33.524 12.18,-47.676 8.35,-14.152 19.6,-25.404 33.76,-33.756 14.15,-8.352 29.92,-12.528 47.32,-12.528 17.4,0 32.83,4.292 46.29,12.876 13.45,8.584 24.01,20.184 31.67,34.8 7.88,14.616 11.83,31.204 11.83,49.764 V 182.7 h -134.33 c 2.09,7.192 5.45,13.688 10.09,19.488 4.87,5.8 10.79,10.324 17.75,13.572 7.19,3.248 14.85,4.872 22.97,4.872 8.12,0 15.54,-1.276 22.27,-3.828 6.96,-2.552 12.88,-6.148 17.75,-10.788 l 31.32,28.536 c -11.14,9.048 -22.62,15.66 -34.45,19.836 -11.6,4.176 -24.71,6.264 -39.33,6.264 z m -49.07,-112.056 h 88.05 c -1.63,-7.192 -4.64,-13.456 -9.05,-18.792 -4.18,-5.568 -9.28,-9.86 -15.31,-12.876 -5.8,-3.248 -12.3,-4.872 -19.49,-4.872 -7.42,0 -14.15,1.508 -20.18,4.524 -6.04,3.016 -11.14,7.308 -15.32,12.876 -3.94,5.336 -6.84,11.716 -8.7,19.14 z M 1208.4,257.172 V 75.864 h 47.68 v 20.184 c 5.8,-7.888 12.76,-13.92 20.88,-18.096 8.12,-4.176 17.28,-6.264 27.49,-6.264 8.81,0.232 15.43,1.624 19.83,4.176 v 41.76 c -3.48,-1.624 -7.3,-2.784 -11.48,-3.48 -4.18,-0.928 -8.47,-1.392 -12.88,-1.392 -9.28,0 -17.74,2.32 -25.4,6.96 -7.66,4.64 -13.8,11.252 -18.44,19.836 v 117.624 z m 198.03,3.48 c -16.7,0 -32.13,-2.088 -46.28,-6.264 -14.15,-4.408 -26.45,-10.672 -36.89,-18.792 l 23.66,-31.668 c 10.44,6.96 20.42,12.18 29.93,15.66 9.75,3.48 19.37,5.22 28.89,5.22 10.67,0 19.14,-1.74 25.4,-5.22 6.5,-3.712 9.74,-8.468 9.74,-14.268 0,-4.64 -1.85,-8.352 -5.56,-11.136 -3.48,-2.784 -9.17,-4.756 -17.06,-5.916 l -34.8,-5.22 c -18.09,-2.784 -31.78,-8.584 -41.06,-17.4 -9.28,-9.048 -13.92,-20.88 -13.92,-35.496 0,-11.832 3.02,-21.924 9.05,-30.276 6.26,-8.584 14.96,-15.196 26.1,-19.836 11.37,-4.872 24.82,-7.308 40.37,-7.308 13.22,0 26.1,1.856 38.62,5.568 12.76,3.712 24.71,9.396 35.85,17.052 l -22.97,30.972 c -9.98,-6.264 -19.49,-10.788 -28.54,-13.572 -9.04,-2.784 -18.21,-4.176 -27.49,-4.176 -8.58,0 -15.54,1.624 -20.88,4.872 -5.1,3.248 -7.65,7.54 -7.65,12.876 0,4.872 1.85,8.7 5.56,11.484 3.72,2.784 10.1,4.756 19.14,5.916 l 34.46,5.22 c 18.09,2.552 31.9,8.352 41.41,17.4 9.51,8.816 14.27,20.3 14.27,34.452 0,11.6 -3.48,21.924 -10.44,30.972 -6.96,8.816 -16.36,15.892 -28.19,21.228 -11.83,5.104 -25.41,7.656 -40.72,7.656 z m 148.63,-0.348 c -12.99,0 -24.47,-2.32 -34.45,-6.96 -9.98,-4.872 -17.75,-11.484 -23.32,-19.836 -5.56,-8.352 -8.35,-17.98 -8.35,-28.884 0,-17.4 6.5,-30.856 19.49,-40.368 13.22,-9.744 31.32,-14.616 54.29,-14.616 15.77,0 30.62,2.436 44.54,7.308 v -13.224 c 0,-10.44 -3.25,-18.328 -9.74,-23.664 -6.5,-5.336 -16.01,-8.004 -28.54,-8.004 -7.65,0 -15.89,1.276 -24.71,3.828 -8.81,2.32 -19.02,6.032 -30.62,11.136 l -17.4,-35.148 c 14.38,-6.496 28.07,-11.368 41.06,-14.616 13.23,-3.248 26.45,-4.872 39.68,-4.872 24.36,0 43.26,5.916 56.72,17.748 13.69,11.6 20.53,28.072 20.53,49.416 v 117.624 h -46.98 v -12.876 c -7.42,5.568 -15.43,9.628 -24.01,12.18 -8.58,2.552 -17.98,3.828 -28.19,3.828 z m -20.88,-56.724 c 0,6.96 3.02,12.528 9.05,16.704 6.03,3.944 14.04,5.916 24.01,5.916 7.89,0 15.2,-0.928 21.93,-2.784 6.72,-2.088 12.76,-5.104 18.09,-9.048 V 187.92 c -5.8,-2.32 -11.83,-4.06 -18.09,-5.22 -6.27,-1.16 -13,-1.74 -20.19,-1.74 -10.9,0 -19.49,2.088 -25.75,6.264 -6.03,3.944 -9.05,9.396 -9.05,16.356 z m 142.22,53.592 v -243.6 l 47.68,-8.004 v 251.604 z m 127.13,0 v -243.6 l 47.68,-8.004 V 90.48 c 14.38,-11.368 31.32,-17.052 50.81,-17.052 17.17,0 32.71,4.176 46.63,12.528 13.92,8.352 24.94,19.604 33.06,33.756 8.35,13.92 12.53,29.58 12.53,46.98 0,17.4 -4.18,33.176 -12.53,47.328 -8.35,13.92 -19.6,25.056 -33.76,33.408 -14.15,8.12 -29.92,12.18 -47.32,12.18 -9.05,0 -17.87,-1.276 -26.45,-3.828 -8.59,-2.552 -16.47,-6.264 -23.67,-11.136 v 12.528 z m 90.83,-37.932 c 9.98,0 18.91,-2.32 26.8,-6.96 8.12,-4.64 14.5,-10.904 19.14,-18.792 4.64,-7.888 6.96,-16.82 6.96,-26.796 0,-9.976 -2.32,-18.908 -6.96,-26.796 -4.64,-8.12 -11.02,-14.384 -19.14,-18.792 -7.89,-4.64 -16.82,-6.96 -26.8,-6.96 -8.81,0 -16.93,1.508 -24.36,4.524 -7.19,2.784 -13.45,7.076 -18.79,12.876 v 70.644 c 5.1,5.336 11.37,9.512 18.79,12.528 7.66,3.016 15.78,4.524 24.36,4.524 z m 114.79,37.932 v -243.6 l 47.68,-8.004 v 251.604 z m 141.34,3.48 c -13.92,0 -26.33,-3.016 -37.24,-9.048 -10.67,-6.264 -19.14,-14.848 -25.4,-25.752 -6.03,-10.904 -9.05,-23.432 -9.05,-37.584 V 75.864 h 47.68 v 105.444 c 0,11.6 3.36,20.88 10.09,27.84 6.96,6.96 16.24,10.44 27.84,10.44 7.89,0 14.96,-1.508 21.23,-4.524 6.49,-3.248 11.83,-7.772 16.01,-13.572 V 75.864 h 47.67 v 181.308 h -47.67 v -14.616 c -13.92,12.064 -30.98,18.096 -51.16,18.096 z m 210.81,0 c -18.1,0 -34.57,-4.176 -49.42,-12.528 -14.61,-8.352 -26.21,-19.604 -34.8,-33.756 -8.58,-14.152 -12.87,-30.044 -12.87,-47.676 0,-17.632 4.06,-33.524 12.18,-47.676 8.35,-14.152 19.6,-25.404 33.75,-33.756 14.15,-8.352 29.93,-12.528 47.33,-12.528 17.4,0 32.83,4.292 46.28,12.876 13.46,8.584 24.02,20.184 31.67,34.8 7.89,14.616 11.83,31.204 11.83,49.764 V 182.7 h -134.32 c 2.08,7.192 5.45,13.688 10.09,19.488 4.87,5.8 10.79,10.324 17.75,13.572 7.19,3.248 14.84,4.872 22.96,4.872 8.12,0 15.55,-1.276 22.28,-3.828 6.96,-2.552 12.87,-6.148 17.74,-10.788 l 31.32,28.536 c -11.13,9.048 -22.62,15.66 -34.45,19.836 -11.6,4.176 -24.71,6.264 -39.32,6.264 z m -49.07,-112.056 h 88.04 c -1.62,-7.192 -4.64,-13.456 -9.04,-18.792 -4.18,-5.568 -9.28,-9.86 -15.32,-12.876 -5.8,-3.248 -12.29,-4.872 -19.48,-4.872 -7.43,0 -14.16,1.508 -20.19,4.524 -6.03,3.016 -11.13,7.308 -15.31,12.876 -3.94,5.336 -6.84,11.716 -8.7,19.14 z"
     fill="white"
     id="path1"
     style="fill:#252b4b;fill-opacity:1" />
  <path
     d="m 120,316.172 h 176 v -266 c 0,-16.569 -13.431,-30 -30,-30 H 30 c -16.569,0 -30,13.431 -30,30 v 146 c 0,66.274 53.726,120 120,120 z"
     fill="url(#paint0_linear_1268_471)"
     id="path2"
     style="fill:url(#paint0_linear_1268_471)" />
  <g
     filter="url(#filter0_b_1268_471)"
     id="g3"
     transform="translate(-137,-212.828)">
    <path
       d="M 223.335,389.792 V 303.628 288 H 207.667 C 199.015,288 192,294.997 192,303.628 v 86.164 C 192,435.747 229.348,473 275.419,473 H 377 V 303.628 288 h -15.667 -15.668 v 15.628 138.116 h -70.246 c -28.765,0 -52.084,-23.259 -52.084,-51.952 z"
       fill="#ffffff"
       id="path3" />
  </g>
  <g
     filter="url(#filter1_b_1268_471)"
     id="g4"
     transform="translate(-137,-212.828)">
    <rect
       x="377"
       y="288"
       width="10"
       height="185"
       fill="#ffffff"
       fill-opacity="0.3"
       id="rect3" />
  </g>
  <g
     filter="url(#filter2_b_1268_471)"
     id="g5"
     transform="translate(-137,-212.828)">
    <rect
       x="387"
       y="288"
       width="10"
       height="185"
       fill="#ffffff"
       fill-opacity="0.1"
       id="rect4" />
  </g>
  <g
     filter="url(#filter3_b_1268_471)"
     id="g6"
     transform="translate(-137,-212.828)">
    <path
       fill-rule="evenodd"
       clip-rule="evenodd"
       d="m 377,441.744 v 0 31.256 0 z M 275.335,389.792 V 303.628 288 H 244 v 101.792 c 0,18.684 6.174,35.93 16.598,49.819 4.698,1.388 9.672,2.133 14.821,2.133 h 52 c -28.765,0 -52.084,-23.259 -52.084,-51.952 z"
       fill="#ffffff"
       fill-opacity="0.1"
       id="path5" />
  </g>
  <g
     filter="url(#filter4_b_1268_471)"
     id="g7"
     transform="translate(-137,-212.828)">
    <path
       fill-rule="evenodd"
       clip-rule="evenodd"
       d="M 377,288 H 371.665 377 V 303.628 473 v 0 z m -127.665,15.628 v 86.164 c 0,28.693 23.319,51.952 52.084,51.952 h -26 c -19.102,0 -35.802,-10.257 -44.867,-25.55 -4.585,-7.737 -7.217,-16.763 -7.217,-26.402 V 303.628 288 H 218 v 0 h 31.335 z"
       fill="#ffffff"
       fill-opacity="0.3"
       id="path6" />
  </g>
  <defs
     id="defs14">
    <filter
       id="filter0_b_1268_471"
       x="152.7"
       y="248.7"
       width="263.60001"
       height="263.60001"
       filterUnits="userSpaceOnUse"
       color-interpolation-filters="sRGB">
      <feFlood
         flood-opacity="0"
         result="BackgroundImageFix"
         id="feFlood7" />
      <feGaussianBlur
         in="BackgroundImageFix"
         stdDeviation="19.65"
         id="feGaussianBlur7" />
      <feComposite
         in2="SourceAlpha"
         operator="in"
         result="effect1_backgroundBlur_1268_471"
         id="feComposite7" />
      <feBlend
         mode="normal"
         in="SourceGraphic"
         in2="effect1_backgroundBlur_1268_471"
         result="shape"
         id="feBlend7" />
    </filter>
    <filter
       id="filter1_b_1268_471"
       x="337"
       y="248"
       width="90"
       height="265"
       filterUnits="userSpaceOnUse"
       color-interpolation-filters="sRGB">
      <feFlood
         flood-opacity="0"
         result="BackgroundImageFix"
         id="feFlood8" />
      <feGaussianBlur
         in="BackgroundImageFix"
         stdDeviation="20"
         id="feGaussianBlur8" />
      <feComposite
         in2="SourceAlpha"
         operator="in"
         result="effect1_backgroundBlur_1268_471"
         id="feComposite8" />
      <feBlend
         mode="normal"
         in="SourceGraphic"
         in2="effect1_backgroundBlur_1268_471"
         result="shape"
         id="feBlend8" />
    </filter>
    <filter
       id="filter2_b_1268_471"
       x="347"
       y="248"
       width="90"
       height="265"
       filterUnits="userSpaceOnUse"
       color-interpolation-filters="sRGB">
      <feFlood
         flood-opacity="0"
         result="BackgroundImageFix"
         id="feFlood9" />
      <feGaussianBlur
         in="BackgroundImageFix"
         stdDeviation="20"
         id="feGaussianBlur9" />
      <feComposite
         in2="SourceAlpha"
         operator="in"
         result="effect1_backgroundBlur_1268_471"
         id="feComposite9" />
      <feBlend
         mode="normal"
         in="SourceGraphic"
         in2="effect1_backgroundBlur_1268_471"
         result="shape"
         id="feBlend9" />
    </filter>
    <filter
       id="filter3_b_1268_471"
       x="204"
       y="248"
       width="213"
       height="265"
       filterUnits="userSpaceOnUse"
       color-interpolation-filters="sRGB">
      <feFlood
         flood-opacity="0"
         result="BackgroundImageFix"
         id="feFlood10" />
      <feGaussianBlur
         in="BackgroundImageFix"
         stdDeviation="20"
         id="feGaussianBlur10" />
      <feComposite
         in2="SourceAlpha"
         operator="in"
         result="effect1_backgroundBlur_1268_471"
         id="feComposite10" />
      <feBlend
         mode="normal"
         in="SourceGraphic"
         in2="effect1_backgroundBlur_1268_471"
         result="shape"
         id="feBlend10" />
    </filter>
    <filter
       id="filter4_b_1268_471"
       x="178"
       y="248"
       width="239"
       height="265"
       filterUnits="userSpaceOnUse"
       color-interpolation-filters="sRGB">
      <feFlood
         flood-opacity="0"
         result="BackgroundImageFix"
         id="feFlood11" />
      <feGaussianBlur
         in="BackgroundImageFix"
         stdDeviation="20"
         id="feGaussianBlur11" />
      <feComposite
         in2="SourceAlpha"
         operator="in"
         result="effect1_backgroundBlur_1268_471"
         id="feComposite11" />
      <feBlend
         mode="normal"
         in="SourceGraphic"
         in2="effect1_backgroundBlur_1268_471"
         result="shape"
         id="feBlend11" />
    </filter>
    <linearGradient
       id="paint0_linear_1268_471"
       x1="416"
       y1="529"
       x2="97.4795"
       y2="284.48099"
       gradientUnits="userSpaceOnUse"
       gradientTransform="translate(-137,-212.828)">
      <stop
         offset="0.18594"
         stop-color="#3550EC"
         id="stop11" />
      <stop
         offset="0.795405"
         stop-color="#252B4B"
         id="stop12" />
    </linearGradient>
    <linearGradient
       id="paint1_linear_1268_471"
       x1="2090"
       y1="674"
       x2="2054.3201"
       y2="354.95499"
       gradientUnits="userSpaceOnUse">
      <stop
         offset="0.18594"
         stop-color="#3550EC"
         id="stop13" />
      <stop
         offset="0.795405"
         stop-color="#252B4B"
         id="stop14" />
    </linearGradient>
  </defs>
</svg>
